<?xml version="1.0" encoding="UTF-8" standalone="no"?>
<!-- Created with Inkscape (http://www.inkscape.org/) -->

<svg
   xmlns:dc="http://purl.org/dc/elements/1.1/"
   xmlns:cc="http://creativecommons.org/ns#"
   xmlns:rdf="http://www.w3.org/1999/02/22-rdf-syntax-ns#"
   xmlns:svg="http://www.w3.org/2000/svg"
   xmlns="http://www.w3.org/2000/svg"
   xmlns:sodipodi="http://sodipodi.sourceforge.net/DTD/sodipodi-0.dtd"
   xmlns:inkscape="http://www.inkscape.org/namespaces/inkscape"
   width="240"
   height="55"
   viewBox="0 0 63.499999 14.552084"
   version="1.1"
   id="svg10456"
   inkscape:version="0.92.2 (5c3e80d, 2017-08-06)"
   sodipodi:docname="chorda-logo.svg">
  <defs
     id="defs10450" />
  <sodipodi:namedview
     id="base"
     pagecolor="#ffffff"
     bordercolor="#666666"
     borderopacity="1.0"
     inkscape:pageopacity="0.0"
     inkscape:pageshadow="2"
     inkscape:zoom="0.35"
     inkscape:cx="-64.285714"
     inkscape:cy="560"
     inkscape:document-units="px"
     inkscape:current-layer="layer1"
     showgrid="false"
     units="px"
     inkscape:window-width="1600"
     inkscape:window-height="837"
     inkscape:window-x="-8"
     inkscape:window-y="-8"
     inkscape:window-maximized="1" />
  <metadata
     id="metadata10453">
    <rdf:RDF>
      <cc:Work
         rdf:about="">
        <dc:format>image/svg+xml</dc:format>
        <dc:type
           rdf:resource="http://purl.org/dc/dcmitype/StillImage" />
        <dc:title></dc:title>
      </cc:Work>
    </rdf:RDF>
  </metadata>
  <g
     inkscape:label="Layer 1"
     inkscape:groupmode="layer"
     id="layer1"
     transform="translate(0,-282.4479)">
    <g
       aria-label="Chorda"
       transform="matrix(0.45592465,0,0,0.45483884,668.08267,143.39065)"
       style="font-style:normal;font-weight:normal;font-size:42.48009872px;line-height:1.25;font-family:sans-serif;letter-spacing:0px;word-spacing:0px;display:inline;fill:#000000;fill-opacity:1;stroke:none;stroke-width:1;stroke-miterlimit:4;stroke-dasharray:none"
       id="text3124">
      <path
         inkscape:connector-curvature="0"
         d="m -1442.916,315.89755 c 0.085,0.0425 0.2124,0.0425 0.3399,0.0425 0.8496,0 2.2514,-1.01952 2.2514,-3.48337 0,-3.56833 -3.8657,-5.22505 -9.8554,-5.22505 -5.9897,0 -14.6556,3.69577 -14.6556,15.08043 0,11.08731 8.1987,14.91052 13.891,14.91052 5.0976,0 10.1527,-1.61425 10.1527,-4.80025 0,-1.18945 -0.7221,-2.08153 -1.9116,-2.08153 -1.8691,3.48337 -4.4179,4.67281 -8.4535,4.67281 -4.3755,0 -10.2802,-4.12057 -10.2802,-12.82899 0,-8.87834 6.7119,-12.74403 11.1723,-12.74403 4.2905,0 7.349,1.27441 7.349,6.45698 z"
         style="font-style:normal;font-variant:normal;font-weight:normal;font-stretch:normal;font-family:'Barkentina Test';-inkscape-font-specification:'Barkentina Test';stroke:#000000;stroke-width:1;stroke-miterlimit:4;stroke-dasharray:none;stroke-opacity:1"
         id="path10422" />
      <path
         inkscape:connector-curvature="0"
         d="m -1414.9415,335.39591 c -1.5718,0 -2.209,-1.31688 -2.209,-2.3364 v -10.28019 c 0,-4.63033 -2.6762,-6.96673 -7.3915,-6.96673 -3.3559,0 -5.9047,1.65672 -7.0942,3.61081 v -9.94035 c 0,-1.74168 -0.9345,-2.84616 -2.9311,-2.84616 h -2.9736 v 1.10448 h 1.147 c 1.3168,0 1.8691,1.14696 1.8691,2.16648 v 23.61894 c 0,0.72216 -0.3823,1.86912 -2.0816,1.86912 h -0.9345 v 1.10449 h 8.411 v -1.10449 h -0.7221 c -0.8071,0 -1.7842,-0.72216 -1.7842,-2.124 v -7.30658 c 0,-4.07809 2.3364,-8.07122 6.6694,-8.07122 2.9736,0 4.9277,1.78417 4.9277,5.86226 v 9.34562 c 0,1.44432 0.6797,3.39841 2.9311,3.39841 h 3.0161 v -1.10449 z"
         style="font-style:normal;font-variant:normal;font-weight:normal;font-stretch:normal;font-family:'Barkentina Test';-inkscape-font-specification:'Barkentina Test';stroke:#000000;stroke-width:1;stroke-miterlimit:4;stroke-dasharray:none;stroke-opacity:1"
         id="path10424" />
      <path
         inkscape:connector-curvature="0"
         d="m -1409.0879,326.47509 c 0,-4.12057 1.7417,-9.09074 7.5615,-9.09074 5.7773,0 7.3066,4.71529 7.3066,9.09074 0,4.37545 -1.9966,8.79338 -7.3066,8.79338 -5.5649,0 -7.5615,-4.41793 -7.5615,-8.79338 z m -2.8886,0 c 0,5.05514 2.9311,10.74747 10.4501,10.74747 7.5614,0 10.1527,-5.69233 10.1527,-10.74747 0,-5.14009 -2.2939,-11.04482 -10.1527,-11.04482 -8.1562,0 -10.4501,5.90473 -10.4501,11.04482 z"
         style="font-style:normal;font-variant:normal;font-weight:normal;font-stretch:normal;font-family:'Barkentina Test';-inkscape-font-specification:'Barkentina Test';stroke:#000000;stroke-width:1;stroke-miterlimit:4;stroke-dasharray:none;stroke-opacity:1"
         id="path10426" />
      <path
         inkscape:connector-curvature="0"
         d="m -1377.7648,315.81259 c -2.1665,0 -4.3754,1.57176 -5.225,3.48337 -0.1275,-1.82665 -1.0196,-2.84617 -2.8462,-2.84617 h -3.0161 v 1.10448 h 0.9771 c 1.1044,0 2.0815,0.59472 2.0815,2.59129 v 12.95643 c 0,0.8496 -0.3399,2.29392 -1.9116,2.29392 h -1.147 v 1.10449 h 8.3686 v -1.10449 h -0.6372 c -1.5293,0 -1.8691,-1.35936 -1.8691,-2.5488 v -6.96674 c 0,-4.37545 1.9541,-8.3261 5.0551,-8.3261 1.7842,0 2.5063,1.18945 2.5063,2.46385 0,0.55224 -0.3398,1.44432 -0.5097,1.57176 0,0 0.2548,0.55224 1.1469,0.55224 1.232,0 1.8267,-1.2744 1.8267,-2.3364 0,-2.20897 -1.3169,-3.99313 -4.8003,-3.99313 z"
         style="font-style:normal;font-variant:normal;font-weight:normal;font-stretch:normal;font-family:'Barkentina Test';-inkscape-font-specification:'Barkentina Test';stroke:#000000;stroke-width:1;stroke-miterlimit:4;stroke-dasharray:none;stroke-opacity:1"
         id="path10428" />
      <path
         inkscape:connector-curvature="0"
         d="m -1352.4327,310.0353 c 0,-2.25145 -0.7222,-3.39841 -3.0161,-3.39841 h -3.2285 v 1.10448 h 1.1045 c 2.124,0 2.209,1.52928 2.209,2.59129 v 8.5385 c -1.0195,-1.74169 -3.6533,-2.88865 -6.457,-2.88865 -7.434,0 -10.0253,5.77729 -10.0253,10.6625 0,5.69234 3.9082,10.32267 9.3031,10.32267 1.2744,0 4.9702,-0.12744 4.9702,-2.08153 0,-0.6372 -0.6372,-1.35936 -0.6372,-1.35936 -0.2124,0.25488 -1.6142,1.65672 -4.0356,1.65672 -3.9931,0 -6.5844,-3.95065 -6.5844,-8.45354 0,-4.50289 2.4213,-8.92082 7.0092,-8.92082 4.2905,0 6.457,3.05857 6.457,7.30658 v 7.98626 c 0,2.37888 1.7417,3.39841 3.2285,3.39841 h 3.1435 v -1.10449 h -1.2744 c -1.4443,0 -2.1665,-1.2744 -2.1665,-2.7612 z"
         style="font-style:normal;font-variant:normal;font-weight:normal;font-stretch:normal;font-family:'Barkentina Test';-inkscape-font-specification:'Barkentina Test';stroke:#000000;stroke-width:1;stroke-miterlimit:4;stroke-dasharray:none;stroke-opacity:1"
         id="path10430" />
      <path
         inkscape:connector-curvature="0"
         d="m -1327.1955,335.39591 c -1.6143,0 -2.1665,-1.18944 -2.1665,-3.186 v -9.55803 c 0,-5.47993 -2.9736,-7.26409 -7.6464,-7.26409 -4.248,0 -7.4341,1.86912 -7.4341,4.46041 0,2.20896 2.0816,2.25144 2.0816,2.25144 0,-2.03904 1.1894,-4.88521 5.3525,-4.88521 4.7153,0 4.8002,3.52585 4.8002,5.43745 v 1.99657 h -2.7187 c -6.2021,0 -11.2148,1.18944 -11.2148,6.41449 0,4.29049 4.2056,5.73482 6.8393,5.73482 4.6304,0 5.0552,-1.57177 5.0552,-2.46385 0,-0.6372 -0.7222,-1.18944 -0.8921,-1.18944 0,0 -1.1895,1.9116 -4.0356,1.9116 -1.8267,0 -3.9932,-1.18944 -3.9932,-3.95065 0,-3.44088 2.9737,-4.63033 8.1987,-4.63033 h 2.7612 v 6.49946 c 0,1.18944 0.085,3.52585 3.4834,3.52585 h 2.1665 v -1.10449 z"
         style="font-style:normal;font-variant:normal;font-weight:normal;font-stretch:normal;font-family:'Barkentina Test';-inkscape-font-specification:'Barkentina Test';stroke:#000000;stroke-width:1;stroke-miterlimit:4;stroke-dasharray:none;stroke-opacity:1"
         id="path10432" />
    </g>
  </g>
</svg>
