<?xml version="1.0" encoding="UTF-8" standalone="no"?>
<svg
   xmlns:dc="http://purl.org/dc/elements/1.1/"
   xmlns:cc="http://creativecommons.org/ns#"
   xmlns:rdf="http://www.w3.org/1999/02/22-rdf-syntax-ns#"
   xmlns:svg="http://www.w3.org/2000/svg"
   xmlns="http://www.w3.org/2000/svg"
   xmlns:sodipodi="http://sodipodi.sourceforge.net/DTD/sodipodi-0.dtd"
   xmlns:inkscape="http://www.inkscape.org/namespaces/inkscape"
   width="500"
   height="500"
   version="1.1"
   viewBox="0 0 132.29 132.29"
   id="svg3937"
   inkscape:version="0.48.5 r10040"
   sodipodi:docname="C:\Users\UserBox1\Documents\NodeWebsites\chorda\Assets\chrom.svg">
  <metadata
     id="metadata4204">
    <rdf:RDF>
      <cc:Work
         rdf:about="">
        <dc:format>image/svg+xml</dc:format>
        <dc:type
           rdf:resource="http://purl.org/dc/dcmitype/StillImage" />
      </cc:Work>
    </rdf:RDF>
  </metadata>
  <defs
     id="defs4202" />
  <sodipodi:namedview
     pagecolor="#ffffff"
     bordercolor="#666666"
     borderopacity="1"
     objecttolerance="10"
     gridtolerance="10"
     guidetolerance="10"
     inkscape:pageopacity="0"
     inkscape:pageshadow="2"
     inkscape:window-width="640"
     inkscape:window-height="480"
     id="namedview4200"
     showgrid="false" />
  <g
     transform="translate(0 -162.5)"
     id="g3939">
    <circle
       cx="66.146"
       cy="230.85"
       r="43.597"
       id="circle3941"
       d="m 109.743,230.85001 c 0,24.07795 -19.519038,43.597 -43.596996,43.597 -24.077959,0 -43.597,-19.51905 -43.597,-43.597 0,-24.07796 19.519041,-43.597 43.597,-43.597 24.077958,0 43.596996,19.51904 43.596996,43.597 z"
       stroke-linecap="round"
       stroke-width=".758"
       stroke="#12a077"
       fill="none" />
    <ellipse
       id="circle-0"
       :active="steps[0]"
       transform="matrix(.61973 .78482 -.78474 .61982 0 0)"
       cx="187.56"
       cy="64.089"
       rx="7.3303"
       ry="7.3301"
       d="m 194.8903,64.088997 c 0,4.048302 -3.28189,7.3301 -7.3303,7.3301 -4.04842,0 -7.3303,-3.281798 -7.3303,-7.3301 0,-4.048303 3.28188,-7.3301 7.3303,-7.3301 4.04841,0 7.3303,3.281797 7.3303,7.3301 z"
       stroke-opacity=".70588"
       stroke-linecap="round"
       stroke-width=".758"
       stroke="#00b1b9"
       fill="#c7eff1" />
    <ellipse
       id="circle-1"
       :active="steps[1]"
       transform="matrix(.61973 .78482 -.78474 .61982 0 0)"
       cx="205.79"
       cy="50.499"
       rx="7.3303"
       ry="7.3301"
       stroke-miterlimit="3.8"
       d="m 213.12029,50.499001 c 0,4.048302 -3.28188,7.3301 -7.3303,7.3301 -4.04841,0 -7.3303,-3.281798 -7.3303,-7.3301 0,-4.048303 3.28189,-7.330101 7.3303,-7.330101 4.04842,0 7.3303,3.281798 7.3303,7.330101 z"
       stroke-opacity=".70588"
       stroke-linecap="round"
       stroke-width=".758"
       stroke="#00b1b9"
       fill="#c7eff1" />
    <ellipse
       id="circle-2"
       :active="steps[2]"
       transform="matrix(.61973 .78482 -.78474 .61982 0 0)"
       cx="228.38"
       cy="47.846"
       rx="7.3303"
       ry="7.3301"
       d="m 235.7103,47.846001 c 0,4.048302 -3.28188,7.3301 -7.3303,7.3301 -4.04841,0 -7.33029,-3.281798 -7.33029,-7.3301 0,-4.048303 3.28188,-7.3301 7.33029,-7.3301 4.04842,0 7.3303,3.281797 7.3303,7.3301 z"
       stroke-opacity=".70588"
       stroke-linecap="round"
       stroke-width=".758"
       stroke="#00b1b9"
       fill="#c7eff1" />
    <ellipse
       id="circle-3"
       :active="steps[3]"
       transform="matrix(.61973 .78482 -.78474 .61982 0 0)"
       cx="249.26"
       cy="56.84"
       rx="7.3303"
       ry="7.3301"
       d="m 256.59029,56.84 c 0,4.048303 -3.28188,7.3301 -7.3303,7.3301 -4.04841,0 -7.3303,-3.281797 -7.3303,-7.3301 0,-4.048302 3.28189,-7.3301 7.3303,-7.3301 4.04842,0 7.3303,3.281798 7.3303,7.3301 z"
       stroke-opacity=".70588"
       stroke-linecap="round"
       stroke-width=".758"
       stroke="#00b1b9"
       fill="#c7eff1" />
    <ellipse
       id="circle-4"
       :active="steps[4]"
       transform="matrix(.61973 .78482 -.78474 .61982 0 0)"
       cx="262.85"
       cy="75.072"
       rx="7.3303"
       ry="7.3301"
       d="m 270.18031,75.071999 c 0,4.048302 -3.28189,7.3301 -7.3303,7.3301 -4.04842,0 -7.3303,-3.281798 -7.3303,-7.3301 0,-4.048303 3.28188,-7.3301 7.3303,-7.3301 4.04841,0 7.3303,3.281797 7.3303,7.3301 z"
       stroke-opacity=".70588"
       stroke-linecap="round"
       stroke-width=".758"
       stroke="#00b1b9"
       fill="#c7eff1" />
    <ellipse
       id="circle-5"
       :active="steps[5]"
       transform="matrix(.61973 .78482 -.78474 .61982 0 0)"
       cx="265.5"
       cy="97.655"
       rx="7.3303"
       ry="7.3301"
       d="m 272.8303,97.654999 c 0,4.048301 -3.28189,7.330101 -7.3303,7.330101 -4.04841,0 -7.3303,-3.2818 -7.3303,-7.330101 0,-4.048303 3.28189,-7.3301 7.3303,-7.3301 4.04841,0 7.3303,3.281797 7.3303,7.3301 z"
       stroke-opacity=".70588"
       stroke-linecap="round"
       stroke-width=".758"
       stroke="#00b1b9"
       fill="#c7eff1" />
    <ellipse
       id="circle-6"
       :active="steps[6]"
       transform="matrix(.61973 .78482 -.78474 .61982 0 0)"
       cx="256.51"
       cy="118.54"
       rx="7.3303"
       ry="7.3301"
       d="m 263.84031,118.54 c 0,4.0483 -3.28189,7.3301 -7.3303,7.3301 -4.04841,0 -7.3303,-3.2818 -7.3303,-7.3301 0,-4.0483 3.28189,-7.3301 7.3303,-7.3301 4.04841,0 7.3303,3.2818 7.3303,7.3301 z"
       stroke-opacity=".70588"
       stroke-linecap="round"
       stroke-width=".758"
       stroke="#00b1b9"
       fill="#c7eff1" />
    <ellipse
       id="circle-7"
       :active="steps[7]"
       transform="matrix(.61973 .78482 -.78474 .61982 0 0)"
       cx="238.28"
       cy="132.13"
       rx="7.3303"
       ry="7.3301"
       d="m 245.6103,132.13 c 0,4.04831 -3.28189,7.3301 -7.3303,7.3301 -4.04841,0 -7.3303,-3.28179 -7.3303,-7.3301 0,-4.0483 3.28189,-7.3301 7.3303,-7.3301 4.04841,0 7.3303,3.2818 7.3303,7.3301 z"
       stroke-opacity=".70588"
       stroke-linecap="round"
       stroke-width=".758"
       stroke="#00b1b9"
       fill="#c7eff1" />
    <ellipse
       id="circle-8"
       :active="steps[8]"
       transform="matrix(.61973 .78482 -.78474 .61982 0 0)"
       cx="215.69"
       cy="134.78"
       rx="7.3303"
       ry="7.3301"
       d="m 223.0203,134.78 c 0,4.0483 -3.28188,7.3301 -7.3303,7.3301 -4.04841,0 -7.3303,-3.2818 -7.3303,-7.3301 0,-4.0483 3.28189,-7.3301 7.3303,-7.3301 4.04842,0 7.3303,3.2818 7.3303,7.3301 z"
       stroke-opacity=".70588"
       stroke-linecap="round"
       stroke-width=".758"
       stroke="#00b1b9"
       fill="#c7eff1" />
    <ellipse
       id="circle-9"
       :active="steps[9]"
       transform="matrix(.61973 .78482 -.78474 .61982 0 0)"
       cx="194.81"
       cy="125.79"
       rx="7.3303"
       ry="7.3301"
       d="m 202.1403,125.79 c 0,4.0483 -3.28189,7.3301 -7.3303,7.3301 -4.04842,0 -7.3303,-3.2818 -7.3303,-7.3301 0,-4.0483 3.28188,-7.3301 7.3303,-7.3301 4.04841,0 7.3303,3.2818 7.3303,7.3301 z"
       stroke-opacity=".70588"
       stroke-linecap="round"
       stroke-width=".758"
       stroke="#00b1b9"
       fill="#c7eff1" />
    <ellipse
       id="circle-10"
       :active="steps[10]"
       transform="matrix(.61973 .78482 -.78474 .61982 0 0)"
       cx="181.22"
       cy="107.56"
       rx="7.3303"
       ry="7.3301"
       d="m 188.5503,107.56 c 0,4.0483 -3.28189,7.3301 -7.3303,7.3301 -4.04841,0 -7.3303,-3.2818 -7.3303,-7.3301 0,-4.0483 3.28189,-7.3301 7.3303,-7.3301 4.04841,0 7.3303,3.2818 7.3303,7.3301 z"
       stroke-opacity=".70588"
       stroke-linecap="round"
       stroke-width=".758"
       stroke="#00b1b9"
       fill="#c7eff1" />
    <ellipse
       id="circle-11"
       :active="steps[11]"
       transform="matrix(.61973 .78482 -.78474 .61982 0 0)"
       cx="178.57"
       cy="84.973"
       rx="7.3303"
       ry="7.3301"
       d="m 185.90031,84.973 c 0,4.048302 -3.28189,7.3301 -7.3303,7.3301 -4.04842,0 -7.3303,-3.281798 -7.3303,-7.3301 0,-4.048303 3.28188,-7.3301 7.3303,-7.3301 4.04841,0 7.3303,3.281797 7.3303,7.3301 z"
       stroke-opacity=".70588"
       stroke-linecap="round"
       stroke-width=".758"
       stroke="#00b1b9"
       fill="#c7eff1" />
    <g
       id="text-step-0"
       class="text-step">
      <g
         id="text-c"
         class="key-text key-sharp"
         :active="notes.c"
         aria-label="C"
         fill-opacity="1">
        <path
           d="m66.121 189.97q-0.7359 0-1.275-0.35939-0.53054-0.36796-0.82148-1.044-0.28238-0.68456-0.28238-1.6344 0-0.95839 0.27382-1.643 0.28238-0.69312 0.7958-1.0525 0.52198-0.36795 1.2322-0.36795 0.72735 0 1.2408 0.32517 0.52198 0.31661 0.81292 0.89849l-0.51342 0.29949q-0.27382-0.50486-0.64178-0.71879-0.36795-0.22248-0.89849-0.22248-0.76158 0-1.198 0.65889-0.42785 0.65033-0.42785 1.8141 0 0.76158 0.19681 1.3178 0.19681 0.55621 0.56476 0.85571 0.36795 0.29093 0.8557 0.29093 0.60755 0 0.94127-0.26526 0.34228-0.27383 0.63322-0.84715l0.53909 0.32517q-0.30805 0.66745-0.82148 1.0183-0.50486 0.35084-1.2065 0.35084z"
           id="path3957"
           stroke-width=".077705" />
      </g>
      <g
         id="text-bsharp"
         class="key-text key-sharp"
         :active="notes.bsharp"
         aria-label="B♯"
         stroke-width=".077705"
         fill-opacity="1">
        <path
           d="m64.944 186.91q0.50486 0.12836 0.77869 0.49631t0.27382 0.96695q0 0.77869-0.47064 1.2322-0.47064 0.44496-1.2921 0.44496h-2.1221v-5.8359h1.9253q0.77869 0 1.2237 0.41074 0.44497 0.40218 0.44497 1.0782 0 0.43641-0.19681 0.75302-0.19681 0.30806-0.56476 0.45352zm-2.1906-0.20536h1.3606q0.9156 0 0.9156-1.0012 0-0.45352-0.26527-0.70167-0.26527-0.24816-0.7359-0.24816h-1.275zm1.3948 2.8153q0.54765 0 0.8557-0.30805 0.31661-0.30806 0.31661-0.83859 0-0.53054-0.31661-0.83004-0.30805-0.30805-0.8557-0.30805h-1.3948v2.2847z"
           id="path3960" />
        <path
           d="m69.053 183.8h0.1922l0.02089 0.0209v1.2702l0.49721-0.2507 0.01253 8e-3v0.58913q-0.01253 0.0292-0.50974 0.27994v1.5585l0.50974-0.22981v0.56407q-0.0042 0.0167-0.50974 0.29665v1.2409l-0.02089 0.0167h-0.1922l-0.02089-0.0167v-1.1407l-1.2033 0.58495v1.4457l-0.02089 0.0167h-0.17549l-0.02089-0.0167v-1.3412l-0.53899 0.25069v-0.59331q0-0.0251 0.53899-0.27576v-1.5836h-0.0084l-0.53064 0.23398v-0.58078l0.53899-0.27158v-1.1992l0.02089-0.0167h0.17549l0.02089 0.0167v1.0947l1.2033-0.55988v-1.3914zm-1.2242 2.603v1.5752l1.2033-0.58077v-1.5543z"
           id="path3962" />
      </g>
    </g>
    <g
       id="text-step-1"
       class="text-step">
      <g
         id="text-csharp"
         class="key-text key-sharp"
         :active="notes.csharp"
         aria-label="C♯"
         stroke-width=".077705"
         fill-opacity="1"
         fill="#202020">
        <path
           d="m86.558 195.78q-0.7359 0-1.275-0.3594-0.53054-0.36795-0.82148-1.044-0.28238-0.68457-0.28238-1.6344 0-0.95838 0.27382-1.643 0.28238-0.69312 0.7958-1.0525 0.52198-0.36795 1.2322-0.36795 0.72735 0 1.2408 0.32516 0.52198 0.31661 0.81292 0.89849l-0.51342 0.2995q-0.27382-0.50487-0.64178-0.71879-0.36795-0.22249-0.89849-0.22249-0.76158 0-1.198 0.6589-0.42785 0.65033-0.42785 1.8141 0 0.76157 0.19681 1.3178 0.19681 0.55621 0.56476 0.8557 0.36795 0.29094 0.8557 0.29094 0.60755 0 0.94127-0.26527 0.34228-0.27382 0.63322-0.84714l0.53909 0.32516q-0.30805 0.66745-0.82147 1.0183-0.50486 0.35084-1.2065 0.35084z"
           id="path3966" />
        <path
           d="m91.593 189.39h0.1922l0.02089 0.0209v1.2702l0.49721-0.25069 0.01253 8e-3v0.58913q-0.01253 0.0292-0.50974 0.27995v1.5585l0.50974-0.2298v0.56406q-0.0042 0.0167-0.50974 0.29665v1.2409l-0.02089 0.0167h-0.1922l-0.02089-0.0167v-1.1407l-1.2033 0.58495v1.4457l-0.02089 0.0167h-0.17549l-0.02089-0.0167v-1.3412l-0.53899 0.25069v-0.59331q0-0.0251 0.53899-0.27576v-1.5836h-0.0084l-0.53064 0.23398v-0.58078l0.53899-0.27158v-1.1992l0.02089-0.0167h0.17549l0.02089 0.0167v1.0947l1.2033-0.55988v-1.3914zm-1.2242 2.603v1.5752l1.2033-0.58077v-1.5543z"
           id="path3968" />
      </g>
      <g
         id="text-dflat"
         class="key-text key-flat"
         :active="notes.dflat"
         aria-label="D♭"
         stroke-width=".077705"
         fill-opacity="1"
         fill="#202020">
        <path
           d="m84.393 189.81h1.4461q0.89849 0 1.5488 0.35084 0.65034 0.34228 0.99262 1.0012t0.34228 1.5745q0 1.3691-0.76158 2.1392-0.76158 0.77014-2.1221 0.77014h-1.4461zm1.429 5.254q1.044 0 1.6344-0.57332t0.59044-1.7542q0-1.1894-0.59044-1.7628t-1.6344-0.57332h-0.78725v4.6636z"
           id="path3971" />
        <path
           d="m89.971 189.39h0.18802l0.02089 0.0251v4.0153h0.01253q0.7103-0.99024 1.3161-0.99024 0.94846 0.0125 1.032 1.0863-0.12117 1.7758-2.5822 2.1434l-0.01253-0.0125v-6.2423zm0.20891 4.4874v1.4833q1.7465-0.41365 1.7465-1.688 0.0042-0.0543 0.0042-0.10446 0-0.61838-0.62256-0.6518-0.49721 0-1.1281 0.96099z"
           id="path3973" />
      </g>
    </g>
    <g
       id="text-step-2"
       class="text-step">
      <g
         id="text-d"
         class="key-text key-natural"
         :active="notes.d"
         aria-label="D"
         fill-opacity="1"
         fill="#202020">
        <path
           d="m101.82 205.97h1.4461q0.89849 0 1.5488 0.35084 0.65033 0.34228 0.99262 1.0012 0.34228 0.65889 0.34228 1.5745 0 1.3691-0.76158 2.1393-0.76157 0.77013-2.1221 0.77013h-1.4461zm1.429 5.254q1.044 0 1.6344-0.57333 0.59043-0.57332 0.59043-1.7542 0-1.1894-0.59043-1.7627-0.59044-0.57333-1.6344-0.57333h-0.78724v4.6636z"
           id="path3977"
           stroke-width=".077705"
           fill="#202020" />
      </g>
    </g>
    <g
       id="text-step-3"
       class="text-step">
      <g
         id="text-dsharp"
         class="key-text key-sharp"
         :active="notes.dsharp"
         aria-label="D♯"
         stroke-width=".077705"
         fill-opacity="1">
        <path
           d="m105.76 228.15h1.4461q0.89849 0 1.5488 0.35084 0.65034 0.34228 0.99262 1.0012t0.34228 1.5745q0 1.3691-0.76158 2.1393-0.76157 0.77013-2.1221 0.77013h-1.4461zm1.429 5.254q1.044 0 1.6344-0.57332 0.59043-0.57332 0.59043-1.7542 0-1.1894-0.59043-1.7628-0.59044-0.57332-1.6344-0.57332h-0.78725v4.6636z"
           id="path3981" />
        <path
           d="m113.26 227.73h0.1922l0.0209 0.0209v1.2702l0.49721-0.2507 0.0125 8e-3v0.58913q-0.0125 0.0292-0.50974 0.27994v1.5585l0.50974-0.2298v0.56406q-4e-3 0.0167-0.50974 0.29666v1.2409l-0.0209 0.0167h-0.1922l-0.0209-0.0167v-1.1406l-1.2033 0.58495v1.4457l-0.0209 0.0167h-0.17548l-0.0209-0.0167v-1.3412l-0.53899 0.2507v-0.59331q0-0.0251 0.53899-0.27576v-1.5836h-8e-3l-0.53064 0.23398v-0.58077l0.53899-0.27159v-1.1992l0.0209-0.0167h0.17548l0.0209 0.0167v1.0947l1.2033-0.55989v-1.3914zm-1.2242 2.603v1.5752l1.2033-0.58078v-1.5543z"
           id="path3983" />
      </g>
      <g
         id="text-eflat"
         class="key-text key-flat"
         :active="notes.eflat"
         aria-label="E♭"
         stroke-width=".077705"
         fill-opacity="1">
        <path
           d="m106.38 233.97v-5.8359h3.2688v0.5391h-2.627v2.0366h2.0537v0.52198h-2.0537v2.2077h2.6527v0.53054z"
           id="path3986" />
        <path
           d="m110.79 227.72h0.18802l0.0209 0.0251v4.0153h0.0125q0.7103-0.99024 1.3161-0.99024 0.94846 0.0125 1.032 1.0863-0.12117 1.7758-2.5822 2.1434l-0.0125-0.0125v-6.2424zm0.20891 4.4874v1.4833q1.7465-0.41365 1.7465-1.688 4e-3 -0.0543 4e-3 -0.10445 0-0.61838-0.62255-0.65181-0.49721 0-1.1281 0.96099z"
           id="path3988" />
      </g>
    </g>
    <g
       id="text-step-4"
       class="text-step">
      <g
         id="text-e"
         class="key-text key-natural"
         :active="notes.e"
         aria-label="E"
         fill-opacity="1">
        <path
           d="m102.34 255.74v-5.8359h3.2688v0.5391h-2.627v2.0366h2.0537v0.52198h-2.0537v2.2077h2.6527v0.53054z"
           id="path3992"
           stroke-width=".077705" />
      </g>
      <g
         id="text-fflat"
         class="key-text key-flat"
         :active="notes.fflat"
         aria-label="F♭"
         stroke-width=".077705"
         fill-opacity="1">
        <path
           d="m100.72 255.94v-5.8359h3.1832v0.5391h-2.5414v2.0366h1.8826v0.52198h-1.8826v2.7382z"
           id="path3995" />
        <path
           d="m104.68 249.68h0.18802l0.0209 0.0251v4.0153h0.0125q0.71031-0.99024 1.3162-0.99024 0.94846 0.0125 1.032 1.0863-0.12116 1.7758-2.5822 2.1434l-0.0125-0.0125v-6.2423zm0.20891 4.4874v1.4833q1.7465-0.41365 1.7465-1.688 4e-3 -0.0543 4e-3 -0.10446 0-0.61838-0.62256-0.6518-0.49721 0-1.1281 0.96099z"
           id="path3997" />
      </g>
    </g>
    <g
       id="text-step-5"
       class="text-step">
      <g
         id="text-esharp"
         class="key-text key-sharp"
         :active="notes.esharp"
         aria-label="E♯"
         stroke-width=".077705"
         fill-opacity="1"
         fill="#202020">
        <path
           d="m84.375 272.03v-5.8359h3.2688v0.53909h-2.627v2.0366h2.0537v0.52198h-2.0537v2.2077h2.6527v0.53053z"
           id="path4001" />
        <path
           d="m90.715 265.77h0.1922l0.02089 0.0209v1.2702l0.49721-0.2507 0.01253 8e-3v0.58913q-0.01253 0.0293-0.50974 0.27994v1.5585l0.50974-0.22981v0.56407q-0.0042 0.0167-0.50974 0.29665v1.2409l-0.02089 0.0167h-0.1922l-0.02089-0.0167v-1.1407l-1.2033 0.58495v1.4457l-0.02089 0.0167h-0.17549l-0.02089-0.0167v-1.3412l-0.53899 0.25069v-0.59331q0-0.0251 0.53899-0.27576v-1.5836h-0.0084l-0.53064 0.23398v-0.58078l0.53899-0.27158v-1.1992l0.02089-0.0167h0.17549l0.02089 0.0167v1.0947l1.2033-0.55988v-1.3914zm-1.2242 2.603v1.5752l1.2033-0.58077v-1.5543z"
           id="path4003" />
      </g>
      <g
         id="text-f"
         class="key-text key-natural"
         :active="notes.f"
         aria-label="F"
         fill-opacity="1"
         fill="#202020">
        <path
           d="m86.317 271.82v-5.8359h3.1832v0.53909h-2.5414v2.0366h1.8825v0.52198h-1.8825v2.7382z"
           id="path4006"
           stroke-width=".077705"
           fill="#202020" />
      </g>
    </g>
    <g
       id="text-step-6"
       class="text-step">
      <g
         id="text-fsharp"
         class="key-text key-sharp"
         :active="notes.fsharp"
         aria-label="F♯"
         stroke-width=".077705"
         fill-opacity="1"
         fill="#202020">
        <path
           d="m62.638 277.91v-5.8359h3.1832v0.5391h-2.5414v2.0366h1.8825v0.52198h-1.8825v2.7382z"
           id="path4010" />
        <path
           d="m68.526 271.66h0.1922l0.02089 0.0209v1.2702l0.49721-0.25069 0.01253 8e-3v0.58914q-0.01253 0.0292-0.50974 0.27994v1.5585l0.50974-0.2298v0.56406q-0.0042 0.0167-0.50974 0.29665v1.2409l-0.02089 0.0167h-0.1922l-0.02089-0.0167v-1.1403l-1.2033 0.58495v1.4457l-0.02089 0.0167h-0.17549l-0.02089-0.0167v-1.3412l-0.53899 0.25069v-0.59331q0-0.0251 0.53899-0.27576v-1.5836h-0.0084l-0.53064 0.23398v-0.58077l0.53899-0.27159v-1.1992l0.02089-0.0167h0.17549l0.02089 0.0167v1.0947l1.2033-0.55988v-1.3914zm-1.2242 2.603v1.5752l1.2033-0.58077v-1.5543z"
           id="path4012" />
      </g>
      <g
         id="text-gflat"
         class="key-text key-flat"
         :active="notes.gflat"
         aria-label="G♭"
         stroke-width=".077705"
         fill-opacity="1"
         fill="#202020">
        <path
           d="m64.181 277.98q-0.7359 0-1.275-0.3594-0.53054-0.36795-0.82148-1.044-0.28238-0.68457-0.28238-1.6344 0-0.95838 0.28238-1.643 0.29094-0.69312 0.82148-1.0525 0.53909-0.36795 1.275-0.36795 0.676 0 1.1638 0.30805 0.49631 0.2995 0.84715 0.88993l-0.50486 0.3594q-0.53909-0.97551-1.506-0.97551-0.80436 0-1.2579 0.6589-0.44496 0.65033-0.44496 1.8141 0 1.1552 0.45352 1.8141 0.45352 0.65033 1.2493 0.65033 0.44496 0 0.7958-0.21393 0.3594-0.21392 0.56476-0.63322 0.20537-0.41929 0.20537-1.0268h-1.3777v-0.53053h2.0109v0.53053q0 0.7958-0.28238 1.352-0.28238 0.54765-0.78725 0.83003-0.49631 0.27383-1.1295 0.27383z"
           id="path4015" />
        <path
           d="m67.516 271.59h0.18802l0.02089 0.0251v4.0153h0.01253q0.7103-0.99024 1.3161-0.99024 0.94846 0.0125 1.032 1.0863-0.12117 1.7758-2.5822 2.1434l-0.01253-0.0125v-6.2423zm0.20891 4.4874v1.4833q1.7465-0.41365 1.7465-1.688 0.0042-0.0543 0.0042-0.10446 0-0.61838-0.62256-0.6518-0.49721 0-1.1281 0.96099z"
           id="path4017" />
      </g>
    </g>
    <g
       id="text-step-7"
       class="text-step">
      <g
         id="text-g"
         class="key-text"
         :active="notes.g"
         aria-label="G"
         fill-opacity="1">
        <path
           d="m44.072 271.95q-0.7359 0-1.275-0.3594-0.53054-0.36795-0.82147-1.044-0.28238-0.68456-0.28238-1.6344 0-0.95839 0.28238-1.643 0.29094-0.69312 0.82147-1.0525 0.53909-0.36796 1.275-0.36796 0.676 0 1.1638 0.30806 0.49631 0.29949 0.84715 0.88993l-0.50486 0.35939q-0.53909-0.9755-1.506-0.9755-0.80436 0-1.2579 0.65889-0.44496 0.65034-0.44496 1.8141 0 1.1552 0.45352 1.8141 0.45352 0.65034 1.2493 0.65034 0.44496 0 0.7958-0.21393 0.3594-0.21392 0.56476-0.63322 0.20537-0.41929 0.20537-1.0268h-1.3777v-0.53054h2.0109v0.53054q0 0.7958-0.28238 1.352-0.28238 0.54765-0.78725 0.83003-0.49631 0.27383-1.1295 0.27383z"
           id="path4021"
           stroke-width=".077705" />
      </g>
    </g>
    <g
       id="text-step-8"
       class="text-step">
      <g
         id="text-gsharp"
         class="key-text key-sharp"
         :active="notes.gsharp"
         aria-label="G♯"
         stroke-width=".077705"
         fill-opacity="1"
         fill="#202020">
        <path
           d="m26.102 256.02q-0.7359 0-1.275-0.35939-0.53054-0.36796-0.82148-1.044-0.28238-0.68456-0.28238-1.6344 0-0.95838 0.28238-1.6429 0.29094-0.69312 0.82148-1.0525 0.53909-0.36795 1.275-0.36795 0.67601 0 1.1638 0.30805 0.49631 0.2995 0.84715 0.88993l-0.50486 0.3594q-0.53909-0.9755-1.506-0.9755-0.80436 0-1.2579 0.65889-0.44497 0.65033-0.44497 1.8141 0 1.1552 0.45352 1.8141 0.45352 0.65033 1.2493 0.65033 0.44497 0 0.7958-0.21392 0.3594-0.21393 0.56476-0.63322 0.20537-0.4193 0.20537-1.0268h-1.3777v-0.53053h2.0109v0.53053q0 0.79581-0.28238 1.352-0.28238 0.54765-0.78725 0.83004-0.49631 0.27382-1.1295 0.27382z"
           id="path4025" />
        <path
           d="m31.36 249.63h0.1922l0.02089 0.0209v1.2702l0.49721-0.25069 0.01253 8e-3v0.58914q-0.01253 0.0292-0.50974 0.27994v1.5585l0.50974-0.2298v0.56406q-0.0042 0.0167-0.50974 0.29665v1.2409l-0.02089 0.0167h-0.1922l-0.02089-0.0167v-1.1407l-1.2033 0.58495v1.4457l-0.02089 0.0167h-0.17549l-0.02089-0.0167v-1.3412l-0.53899 0.2507v-0.59331q0-0.0251 0.53899-0.27577v-1.5836h-0.0084l-0.53064 0.23398v-0.58077l0.53899-0.27159v-1.1992l0.02089-0.0167h0.17549l0.02089 0.0167v1.0947l1.2033-0.55988v-1.3914zm-1.2242 2.603v1.5752l1.2033-0.58077v-1.5543z"
           id="path4027" />
      </g>
      <g
         id="text-aflat"
         class="key-text key-flat"
         :active="notes.aflat"
         aria-label="A♭"
         stroke-width=".077705"
         fill-opacity="1"
         fill="#202020">
        <path
           d="m27.974 255.94-0.59899-1.6344h-2.4216l-0.53909 1.6344h-0.64178l2.0708-5.8359h0.59899l2.1307 5.8359zm-2.8238-2.1649h2.028l-1.044-2.8324z"
           id="path4030" />
        <path
           d="m29.465 249.68h0.18802l0.02089 0.0251v4.0153h0.01253q0.7103-0.99025 1.3161-0.99025 0.94846 0.0125 1.032 1.0864-0.12117 1.7758-2.5822 2.1434l-0.01253-0.0125v-6.2423zm0.20891 4.4874v1.4833q1.7465-0.41364 1.7465-1.688 0.0042-0.0543 0.0042-0.10445 0-0.61838-0.62256-0.65181-0.49721 0-1.1281 0.961z"
           id="path4032" />
      </g>
    </g>
    <g
       id="text-step-9"
       class="text-step">
      <g
         id="text-a"
         class="key-text key-natural"
         :active="notes.a"
         aria-label="A"
         fill-opacity="1"
         fill="#202020">
        <path
           d="m23.819 233.77-0.59899-1.6344h-2.4216l-0.53909 1.6344h-0.64178l2.0708-5.8359h0.59899l2.1307 5.8359zm-2.8238-2.1649h2.028l-1.044-2.8324z"
           id="path4036"
           stroke-width=".077705"
           fill="#202020" />
      </g>
    </g>
    <g
       id="text-step-10"
       class="text-step">
      <g
         id="text-asharp"
         class="key-text key-sharp"
         :active="notes.asharp"
         aria-label="A♯"
         stroke-width=".077705"
         fill-opacity="1">
        <path
           d="m27.936 212.02-0.59899-1.6344h-2.4216l-0.53909 1.6344h-0.64178l2.0708-5.8359h0.59899l2.1307 5.8359zm-2.8238-2.1649h2.028l-1.044-2.8324z"
           id="path4040" />
        <path
           d="m31.349 205.76h0.1922l0.02089 0.0209v1.2702l0.49721-0.25069 0.01253 8e-3v0.58913q-0.01253 0.0293-0.50974 0.27995v1.5585l0.50974-0.22981v0.56407q-0.0042 0.0167-0.50974 0.29665v1.2409l-0.02089 0.0167h-0.1922l-0.02089-0.0167v-1.1407l-1.2033 0.58495v1.4457l-0.02089 0.0167h-0.17548l-0.02089-0.0167v-1.3412l-0.53899 0.25069v-0.59331q0-0.0251 0.53899-0.27576v-1.5836h-0.0084l-0.53064 0.23398v-0.58078l0.53899-0.27158v-1.1992l0.02089-0.0167h0.17549l0.02089 0.0167v1.0947l1.2033-0.55988v-1.3914zm-1.2242 2.603v1.5752l1.2033-0.58077v-1.5543z"
           id="path4042" />
      </g>
      <g
         id="text-bflat"
         class="key-text key-flat"
         :active="notes.bflat"
         aria-label="B♭"
         stroke-width=".077705"
         fill-opacity="1">
        <path
           d="m27.14 208.88q0.50486 0.12835 0.77869 0.4963 0.27382 0.36796 0.27382 0.96695 0 0.77869-0.47064 1.2322-0.47064 0.44497-1.2921 0.44497h-2.1221v-5.8359h1.9253q0.77869 0 1.2237 0.41074 0.44496 0.40218 0.44496 1.0782 0 0.43641-0.19681 0.75302-0.19681 0.30806-0.56476 0.45353zm-2.1906-0.20537h1.3606q0.9156 0 0.9156-1.0012 0-0.45352-0.26527-0.70167-0.26527-0.24816-0.7359-0.24816h-1.275zm1.3948 2.8153q0.54765 0 0.8557-0.30805 0.31661-0.30806 0.31661-0.83859 0-0.53054-0.31661-0.83003-0.30805-0.30806-0.8557-0.30806h-1.3948v2.2847z"
           id="path4045" />
        <path
           d="m29.327 205.76h0.18802l0.02089 0.0251v4.0153h0.01253q0.7103-0.99024 1.3161-0.99024 0.94846 0.0125 1.032 1.0863-0.12117 1.7758-2.5822 2.1434l-0.01253-0.0125v-6.2423zm0.20891 4.4874v1.4833q1.7465-0.41365 1.7465-1.688 0.0042-0.0543 0.0042-0.10446 0-0.61838-0.62256-0.6518-0.49721 0-1.1281 0.96099z"
           id="path4047" />
      </g>
    </g>
    <g
       id="text-step-11"
       class="text-step">
      <g
         id="text-cflat"
         class="key-text key-flat"
         :active="notes.cflat"
         aria-label="C♭"
         stroke-width=".077705"
         fill-opacity="1">
        <path
           d="m42.329 196.01q-0.7359 0-1.275-0.3594-0.53054-0.36795-0.82148-1.044-0.28238-0.68456-0.28238-1.6344 0-0.95839 0.27382-1.643 0.28238-0.69312 0.7958-1.0525 0.52198-0.36796 1.2322-0.36796 0.72735 0 1.2408 0.32517 0.52198 0.31661 0.81292 0.89849l-0.51342 0.2995q-0.27382-0.50487-0.64178-0.71879-0.36795-0.22249-0.89849-0.22249-0.76158 0-1.198 0.65889-0.42785 0.65034-0.42785 1.8141 0 0.76158 0.19681 1.3178 0.19681 0.5562 0.56476 0.8557 0.36795 0.29094 0.8557 0.29094 0.60755 0 0.94127-0.26527 0.34228-0.27382 0.63322-0.84715l0.53909 0.32517q-0.30805 0.66745-0.82148 1.0183-0.50486 0.35084-1.2065 0.35084z"
           id="path4051" />
        <path
           d="m45.442 189.61h0.18802l0.02089 0.0251v4.0153h0.01253q0.7103-0.99024 1.3161-0.99024 0.94846 0.0125 1.032 1.0863-0.12117 1.7758-2.5822 2.1434l-0.01253-0.0125v-6.2423zm0.20891 4.4874v1.4833q1.7465-0.41364 1.7465-1.688 0.0042-0.0543 0.0042-0.10446 0-0.61838-0.62256-0.6518-0.49721 0-1.1281 0.96099z"
           id="path4053" />
      </g>
      <g
         id="text-b"
         class="key-text key-natural"
         :active="notes.b"
         aria-label="B"
         fill-opacity="1">
        <path
           d="m45.132 192.71q0.50486 0.12836 0.77869 0.49631t0.27382 0.96694q0 0.77869-0.47064 1.2322-0.47064 0.44496-1.2921 0.44496h-2.1221v-5.8359h1.9253q0.77869 0 1.2237 0.41073 0.44496 0.40218 0.44496 1.0782 0 0.43641-0.19681 0.75302-0.19681 0.30805-0.56476 0.45352zm-2.1906-0.20537h1.3606q0.9156 0 0.9156-1.0012 0-0.45352-0.26527-0.70168-0.26527-0.24815-0.7359-0.24815h-1.275zm1.3948 2.8153q0.54765 0 0.8557-0.30806 0.31661-0.30805 0.31661-0.83859 0-0.53053-0.31661-0.83003-0.30805-0.30805-0.8557-0.30805h-1.3948v2.2847z"
           id="path4056"
           stroke-width=".077705" />
      </g>
    </g>
  </g>
  <!-- <path d="m108.78 268.45a56.845 56.845 0 0 1-56.058 17.639" fill="none" stroke="#12a077" stroke-linecap="round" stroke-width=".98835"/> -->
  <g
     id="root-text-outer"
     class="text-outer"
     :active="increments.root">
    <rect
       x="0"
       y="0"
       width="135"
       height="135"
       rx="0"
       ry="0"
       fill-opacity="0.0"
       id="rect4101" />
    <g
       transform="translate(65 12.5)"
       id="g4103">
      <g
         id="root-text-inner"
         class="text-inner"
         fill="#00787d"
         font-family="Didact Gothic"
         letter-spacing="0px"
         stroke-width=".078107"
         word-spacing="0px">
        <text
           x="-4"
           y="0"
           font-size="6px"
           style="line-height:1.25"
           xml:space="preserve"
           id="text4106">root</text>
      </g>
    </g>
  </g>
  <g
     id="third-text-outer"
     class="text-outer"
     :active="increments.third">
    <rect
       x="0"
       y="0"
       width="135"
       height="135"
       rx="0"
       ry="0"
       fill-opacity="0.0"
       fill="#ff0000"
       id="rect4109" />
    <g
       transform="translate(65 12.5)"
       id="g4111">
      <g
         id="third-text-inner"
         class="text-inner"
         fill="#00787d"
         font-family="Didact Gothic"
         letter-spacing="0px"
         stroke-width=".078107"
         word-spacing="0px">
        <text
           x="-2.5"
           y="0"
           font-size="8.1859px"
           style="line-height:1.25"
           xml:space="preserve"
           id="text4114">3</text>
        <text
           x="2"
           y="0"
           font-size="4.887px"
           style="line-height:1.25"
           xml:space="preserve"
           id="text4116">rd</text>
      </g>
    </g>
  </g>
  <g
     id="fifth-text-outer"
     class="text-outer"
     :active="increments.fifth">
    <rect
       x="0"
       y="0"
       width="135"
       height="135"
       rx="0"
       ry="0"
       fill-opacity="0.0"
       fill="#ffcc00"
       id="rect4119" />
    <g
       transform="translate(65 12.5)"
       id="g4121">
      <g
         id="fifth-text-inner"
         class="text-inner"
         fill="#00787d"
         font-family="Didact Gothic"
         letter-spacing="0px"
         stroke-width=".078107"
         word-spacing="0px">
        <text
           x="-3"
           y="0"
           font-size="8.1859px"
           style="line-height:1.25"
           xml:space="preserve"
           id="text4124">5</text>
        <text
           x="2"
           y="0"
           font-size="4.887px"
           style="line-height:1.25"
           xml:space="preserve"
           id="text4126">th</text>
      </g>
    </g>
  </g>
  <g
     id="seventh-text-outer"
     class="text-outer"
     :active="increments.fifth">
    <rect
       x="0"
       y="0"
       width="135"
       height="135"
       rx="0"
       ry="0"
       fill-opacity="0.0"
       fill="#ffcc00"
       id="rect4129" />
    <g
       transform="translate(65 12.5)"
       id="g4131">
      <g
         id="seventh-text-inner"
         class="text-inner"
         fill="#00787d"
         font-family="Didact Gothic"
         letter-spacing="0px"
         stroke-width=".078107"
         word-spacing="0px">
        <text
           x="-2"
           y="0"
           font-size="8.1859px"
           style="line-height:1.25"
           xml:space="preserve"
           id="text4134">7</text>
        <text
           x="2"
           y="0"
           font-size="4.887px"
           style="line-height:1.25"
           xml:space="preserve"
           id="text4136">th</text>
      </g>
    </g>
  </g>
  <g
     transform="translate(-3 0)"
     id="g4138">
    <g
       id="step-1"
       class="text-outer"
       active="active">
      <rect
         x="0"
         y="0"
         width="135"
         height="135"
         rx="0"
         ry="0"
         fill-opacity="0"
         fill="#ffcc00"
         id="rect4146" />
      <circle
         cx="65"
         cy="12"
         r="2"
         fill="#12a077"
         stroke="#12a077"
         stroke-linecap="round"
         stroke-width=".758"
         id="circle4148"
         d="m 67,12 c 0,1.104569 -0.895431,2 -2,2 -1.104569,0 -2,-0.895431 -2,-2 0,-1.104569 0.895431,-2 2,-2 1.104569,0 2,0.895431 2,2 z" />
    </g>
    <g
       id="step-2"
       class="text-outer"
       active="active">
      <rect
         x="0"
         y="0"
         width="135"
         height="135"
         rx="0"
         ry="0"
         fill-opacity="0"
         fill="#ffcc00"
         id="rect4151" />
      <circle
         cx="65"
         cy="12"
         r="2"
         fill="#12a077"
         stroke="#12a077"
         stroke-linecap="round"
         stroke-width=".758"
         id="circle4153"
         d="m 67,12 c 0,1.104569 -0.895431,2 -2,2 -1.104569,0 -2,-0.895431 -2,-2 0,-1.104569 0.895431,-2 2,-2 1.104569,0 2,0.895431 2,2 z" />
    </g>
    <g
       id="step-3"
       class="text-outer"
       active="active">
      <rect
         x="0"
         y="0"
         width="135"
         height="135"
         rx="0"
         ry="0"
         fill-opacity="0"
         fill="#ffcc00"
         id="rect4156" />
      <circle
         cx="65"
         cy="12"
         r="2"
         fill="#12a077"
         stroke="#12a077"
         stroke-linecap="round"
         stroke-width=".758"
         id="circle4158"
         d="m 67,12 c 0,1.104569 -0.895431,2 -2,2 -1.104569,0 -2,-0.895431 -2,-2 0,-1.104569 0.895431,-2 2,-2 1.104569,0 2,0.895431 2,2 z" />
    </g>
    <g
       id="step-4"
       class="text-outer"
       active="active">
      <rect
         x="0"
         y="0"
         width="135"
         height="135"
         rx="0"
         ry="0"
         fill-opacity="0"
         fill="#ffcc00"
         id="rect4161" />
      <circle
         cx="65"
         cy="12"
         r="2"
         fill="#12a077"
         stroke="#12a077"
         stroke-linecap="round"
         stroke-width=".758"
         id="circle4163"
         d="m 67,12 c 0,1.104569 -0.895431,2 -2,2 -1.104569,0 -2,-0.895431 -2,-2 0,-1.104569 0.895431,-2 2,-2 1.104569,0 2,0.895431 2,2 z" />
    </g>
    <g
       id="step-5"
       class="text-outer"
       active="active">
      <rect
         x="0"
         y="0"
         width="135"
         height="135"
         rx="0"
         ry="0"
         fill-opacity="0"
         fill="#ffcc00"
         id="rect4166" />
      <circle
         cx="65"
         cy="12"
         r="2"
         fill="#12a077"
         stroke="#12a077"
         stroke-linecap="round"
         stroke-width=".758"
         id="circle4168"
         d="m 67,12 c 0,1.104569 -0.895431,2 -2,2 -1.104569,0 -2,-0.895431 -2,-2 0,-1.104569 0.895431,-2 2,-2 1.104569,0 2,0.895431 2,2 z" />
    </g>
    <g
       id="step-6"
       class="text-outer"
       active="active">
      <rect
         x="0"
         y="0"
         width="135"
         height="135"
         rx="0"
         ry="0"
         fill-opacity="0"
         fill="#ffcc00"
         id="rect4171" />
      <circle
         cx="65"
         cy="12"
         r="2"
         fill="#12a077"
         stroke="#12a077"
         stroke-linecap="round"
         stroke-width=".758"
         id="circle4173"
         d="m 67,12 c 0,1.104569 -0.895431,2 -2,2 -1.104569,0 -2,-0.895431 -2,-2 0,-1.104569 0.895431,-2 2,-2 1.104569,0 2,0.895431 2,2 z" />
    </g>
    <g
       id="step-7"
       class="text-outer"
       active="active">
      <rect
         x="0"
         y="0"
         width="135"
         height="135"
         rx="0"
         ry="0"
         fill-opacity="0"
         fill="#ffcc00"
         id="rect4176" />
      <circle
         cx="65"
         cy="12"
         r="2"
         fill="#12a077"
         stroke="#12a077"
         stroke-linecap="round"
         stroke-width=".758"
         id="circle4178"
         d="m 67,12 c 0,1.104569 -0.895431,2 -2,2 -1.104569,0 -2,-0.895431 -2,-2 0,-1.104569 0.895431,-2 2,-2 1.104569,0 2,0.895431 2,2 z" />
    </g>
    <g
       id="step-8"
       class="text-outer"
       active="active">
      <rect
         x="0"
         y="0"
         width="135"
         height="135"
         rx="0"
         ry="0"
         fill-opacity="0"
         fill="#ffcc00"
         id="rect4181" />
      <circle
         cx="65"
         cy="12"
         r="2"
         fill="#12a077"
         stroke="#12a077"
         stroke-linecap="round"
         stroke-width=".758"
         id="circle4183"
         d="m 67,12 c 0,1.104569 -0.895431,2 -2,2 -1.104569,0 -2,-0.895431 -2,-2 0,-1.104569 0.895431,-2 2,-2 1.104569,0 2,0.895431 2,2 z" />
    </g>
    <g
       id="step-9"
       class="text-outer"
       active="active">
      <rect
         x="0"
         y="0"
         width="135"
         height="135"
         rx="0"
         ry="0"
         fill-opacity="0"
         fill="#ffcc00"
         id="rect4186" />
      <circle
         cx="65"
         cy="12"
         r="2"
         fill="#12a077"
         stroke="#12a077"
         stroke-linecap="round"
         stroke-width=".758"
         id="circle4188"
         d="m 67,12 c 0,1.104569 -0.895431,2 -2,2 -1.104569,0 -2,-0.895431 -2,-2 0,-1.104569 0.895431,-2 2,-2 1.104569,0 2,0.895431 2,2 z" />
    </g>
    <g
       id="step-10"
       class="text-outer"
       active="active">
      <rect
         x="0"
         y="0"
         width="135"
         height="135"
         rx="0"
         ry="0"
         fill-opacity="0"
         fill="#ffcc00"
         id="rect4191" />
      <circle
         cx="65"
         cy="12"
         r="2"
         fill="#12a077"
         stroke="#12a077"
         stroke-linecap="round"
         stroke-width=".758"
         id="circle4193"
         d="m 67,12 c 0,1.104569 -0.895431,2 -2,2 -1.104569,0 -2,-0.895431 -2,-2 0,-1.104569 0.895431,-2 2,-2 1.104569,0 2,0.895431 2,2 z" />
    </g>
    <g
       id="step-11"
       class="text-outer"
       active="active">
      <rect
         x="0"
         y="0"
         width="135"
         height="135"
         rx="0"
         ry="0"
         fill-opacity="0"
         fill="#ffcc00"
         id="rect4196" />
      <circle
         cx="65"
         cy="12"
         r="2"
         fill="#12a077"
         stroke="#12a077"
         stroke-linecap="round"
         stroke-width=".758"
         id="circle4198"
         d="m 67,12 c 0,1.104569 -0.895431,2 -2,2 -1.104569,0 -2,-0.895431 -2,-2 0,-1.104569 0.895431,-2 2,-2 1.104569,0 2,0.895431 2,2 z" />
    </g>
  </g>
</svg>
