<?xml version="1.0" encoding="UTF-8" standalone="no"?>
<!-- Created with Inkscape (http://www.inkscape.org/) -->

<svg
   xmlns:dc="http://purl.org/dc/elements/1.1/"
   xmlns:cc="http://creativecommons.org/ns#"
   xmlns:rdf="http://www.w3.org/1999/02/22-rdf-syntax-ns#"
   xmlns:svg="http://www.w3.org/2000/svg"
   xmlns="http://www.w3.org/2000/svg"
   xmlns:sodipodi="http://sodipodi.sourceforge.net/DTD/sodipodi-0.dtd"
   xmlns:inkscape="http://www.inkscape.org/namespaces/inkscape"
   width="250"
   height="200"
   viewBox="0 0 66.145832 52.916668"
   version="1.1"
   id="svg3113"
   inkscape:version="0.92.2 (5c3e80d, 2017-08-06)"
   sodipodi:docname="notation.svg">
  <defs
     id="defs3107" />
  <sodipodi:namedview
     id="base"
     pagecolor="#ffffff"
     bordercolor="#666666"
     borderopacity="1.0"
     inkscape:pageopacity="0.0"
     inkscape:pageshadow="2"
     inkscape:zoom="3.0813445"
     inkscape:cx="143.65788"
     inkscape:cy="89.948575"
     inkscape:document-units="px"
     inkscape:current-layer="layer1"
     showgrid="false"
     inkscape:window-width="1600"
     inkscape:window-height="837"
     inkscape:window-x="-8"
     inkscape:window-y="-8"
     inkscape:window-maximized="1"
     units="px" />
  <metadata
     id="metadata3110">
    <rdf:RDF>
      <cc:Work
         rdf:about="">
        <dc:format>image/svg+xml</dc:format>
        <dc:type
           rdf:resource="http://purl.org/dc/dcmitype/StillImage" />
        <dc:title></dc:title>
      </cc:Work>
    </rdf:RDF>
  </metadata>
  <g
     inkscape:label="Layer 1"
     inkscape:groupmode="layer"
     id="layer1"
     transform="translate(0,-244.08333)">
    <g
       transform="matrix(0.40106096,0,0,0.40106096,-12.600312,233.77752)"
       id="g1115">
      <g
         aria-label="♯"
         transform="matrix(0.90609848,0.21759284,0,1.1036328,0,0)"
         style="font-style:normal;font-weight:normal;font-size:49.67618179px;line-height:1.25;font-family:sans-serif;letter-spacing:0px;word-spacing:0px;display:inline;fill:#000000;fill-opacity:1;stroke:none;stroke-width:0.19364296"
         id="text1107">
        <path
           d="m 116.04722,82.817187 h 1.11577 l 0.12128,0.12128 v 7.373808 l 2.88646,-1.455357 0.0728,0.04851 v 3.420089 q -0.0728,0.169792 -2.95923,1.625149 v 9.047472 l 2.95923,-1.33408 v 3.27455 q -0.0243,0.097 -2.95923,1.72217 v 7.20402 l -0.12128,0.097 h -1.11577 l -0.12128,-0.097 v -6.62187 l -6.98571,3.39583 v 8.39256 l -0.12128,0.097 h -1.01875 l -0.12128,-0.097 v -7.78616 l -3.12902,1.45536 v -3.44435 q 0,-0.14553 3.12902,-1.60089 v -9.193006 h -0.0485 l -3.08051,1.358333 V 96.44903 l 3.12902,-1.576636 v -6.961458 l 0.12128,-0.09702 h 1.01875 l 0.12128,0.09702 v 6.355059 l 6.98571,-3.250297 v -8.077231 z m -7.10699,15.111456 v 9.144497 l 6.98571,-3.37158 v -9.023214 z"
           style="font-style:normal;font-variant:normal;font-weight:normal;font-stretch:normal;font-family:'Didact Gothic';-inkscape-font-specification:'Didact Gothic';stroke-width:0.19364296"
           id="path1131" />
      </g>
      <g
         aria-label="♭"
         transform="scale(1.0011929,0.99880852)"
         style="font-style:normal;font-weight:normal;font-size:37.91523361px;line-height:1.25;font-family:sans-serif;letter-spacing:0px;word-spacing:0px;display:inline;fill:#000000;fill-opacity:1;stroke:none;stroke-width:0.14779755"
         id="text1101">
        <path
           d="m 97.602825,115.31689 h 0.833099 l 0.09257,0.11108 v 17.79128 h 0.05554 q 3.14726,-4.38765 5.83169,-4.38765 4.20252,0.0555 4.57278,4.81345 -0.53688,7.86816 -11.441215,9.49733 l -0.05554,-0.0555 v -27.65887 z m 0.925665,19.88328 v 6.57222 q 7.73856,-1.83281 7.73856,-7.47937 0.0185,-0.24067 0.0185,-0.46283 0,-2.73997 -2.75848,-2.88808 -2.20308,0 -4.99859,4.25806 z"
           style="font-style:normal;font-variant:normal;font-weight:normal;font-stretch:normal;font-family:'Didact Gothic';-inkscape-font-specification:'Didact Gothic';stroke-width:0.14779755"
           id="path1134" />
      </g>
      <g
         id="g1139">
        <path
           style="opacity:1;fill:#000000;fill-opacity:1;stroke:none;stroke-width:2.27820444;stroke-linecap:round;stroke-miterlimit:4;stroke-dasharray:none;stroke-opacity:1"
           d="m 140.38147,128.36684 c -6.47882,5e-5 -11.7303,3.24627 -11.72998,7.25037 1.4e-4,4.00393 5.25148,7.24975 11.72998,7.2498 6.47848,-5e-5 11.73042,-3.24587 11.73056,-7.2498 2.9e-4,-4.0041 -5.25176,-7.25032 -11.73056,-7.25037 z m 0,0.93361 c 4.7068,-6e-5 6.77408,3.89366 6.77403,7.38232 -2.6e-4,3.48845 -3.28524,5.25069 -6.77403,5.25063 -4.70636,-2.7e-4 -6.7732,-4.19799 -6.77346,-7.6862 -5e-5,-3.48844 3.28467,-4.94648 6.77346,-4.94675 z"
           id="path1109"
           inkscape:connector-curvature="0"
           sodipodi:nodetypes="cccccccccc" />
        <path
           inkscape:connector-curvature="0"
           id="path1111"
           d="m 126.85566,135.61692 h 27.0522"
           style="fill:none;stroke:#000000;stroke-width:1;stroke-linecap:butt;stroke-linejoin:miter;stroke-miterlimit:4;stroke-dasharray:none;stroke-opacity:1" />
      </g>
      <g
         id="g1143">
        <path
           sodipodi:nodetypes="cccccccccc"
           inkscape:connector-curvature="0"
           id="path1103"
           d="m 121.31918,128.36684 c -6.47882,5e-5 -11.7303,3.24627 -11.72998,7.25037 1.4e-4,4.00393 5.25148,7.24975 11.72998,7.2498 6.47848,-5e-5 11.73042,-3.24587 11.73056,-7.2498 2.9e-4,-4.0041 -5.25176,-7.25032 -11.73056,-7.25037 z m 0,0.93361 c 4.7068,-6e-5 6.77408,3.89366 6.77403,7.38232 -2.6e-4,3.48845 -3.28524,5.25069 -6.77403,5.25063 -4.70636,-2.7e-4 -6.7732,-4.19799 -6.77346,-7.6862 -5e-5,-3.48844 3.28467,-4.94648 6.77346,-4.94675 z"
           style="opacity:1;fill:#000000;fill-opacity:1;stroke:none;stroke-width:2.27820444;stroke-linecap:round;stroke-miterlimit:4;stroke-dasharray:none;stroke-opacity:1" />
        <path
           style="fill:none;stroke:#000000;stroke-width:1;stroke-linecap:butt;stroke-linejoin:miter;stroke-miterlimit:4;stroke-dasharray:none;stroke-opacity:1"
           d="m 107.79337,135.61692 h 27.0522"
           id="path1113"
           inkscape:connector-curvature="0" />
      </g>
    </g>
    <path
       style="fill:none;stroke:#000000;stroke-width:0.40106097;stroke-linecap:butt;stroke-linejoin:miter;stroke-miterlimit:4;stroke-dasharray:none;stroke-opacity:1"
       d="M 2.9561768e-6,252.08396 H 64.541542"
       id="path3104"
       inkscape:connector-curvature="0" />
    <path
       inkscape:connector-curvature="0"
       id="path3106"
       d="M 2.9561768e-6,258.10788 H 64.541542"
       style="fill:none;stroke:#000000;stroke-width:0.40106097;stroke-linecap:butt;stroke-linejoin:miter;stroke-miterlimit:4;stroke-dasharray:none;stroke-opacity:1" />
    <path
       style="fill:none;stroke:#000000;stroke-width:0.40106097;stroke-linecap:butt;stroke-linejoin:miter;stroke-miterlimit:4;stroke-dasharray:none;stroke-opacity:1"
       d="M 2.9561768e-6,264.13181 H 64.541542"
       id="path3108"
       inkscape:connector-curvature="0" />
    <path
       inkscape:connector-curvature="0"
       id="path3110"
       d="M 2.9561768e-6,270.15573 H 64.541542"
       style="fill:none;stroke:#000000;stroke-width:0.40106097;stroke-linecap:butt;stroke-linejoin:miter;stroke-miterlimit:4;stroke-dasharray:none;stroke-opacity:1" />
    <path
       style="fill:none;stroke:#000000;stroke-width:0.40106097;stroke-linecap:butt;stroke-linejoin:miter;stroke-miterlimit:4;stroke-dasharray:none;stroke-opacity:1"
       d="M 2.9561768e-6,276.17967 H 64.541542"
       id="path3112"
       inkscape:connector-curvature="0" />
    <g
       transform="matrix(0.62340025,0,0,0.62202008,-15.644581,241.53287)"
       id="g3136"
       style="stroke-width:0.17215836">
      <path
         style="fill:#000000;fill-opacity:1;fill-rule:nonzero;stroke:#000000;stroke-width:0.01721583;stroke-linecap:butt;stroke-linejoin:miter;stroke-miterlimit:4;stroke-dasharray:none;stroke-opacity:1"
         d="m 39.708934,63.678683 c -0.39184,2.091967 1.790672,6.436378 6.18165,6.578301 5.308336,0.171574 8.699737,-3.889078 7.119749,-10.516109 L 45.086538,23.171517 c -0.943257,-4.353257 -0.235257,-6.71442 0.268403,-8.121572 1.343735,-3.754196 4.700881,-5.3026408 5.518193,-4.100737 0.466629,0.686205 1.594908,3.894798 -1.616859,9.641613 -2.504897,4.482014 -14.15929,10.359317 -15.014575,20.87719 -0.740418,9.146238 8.833989,15.90129 17.097566,13.245729 5.48642,-1.763101 8.314699,-10.08972 4.918791,-14.384753 C 47.29624,28.994371 32.923702,46.341263 46.846564,51.0935 45.332604,49.90238 44.300646,48.980054 44.1085,47.852721 42.237755,36.876941 58.741182,39.774741 54.294493,50.18735 52.466001,54.469045 45.080341,55.297323 40.874269,51.477433 37.350853,48.277521 35.787387,42.113231 39.708327,37.687888 45.018831,31.694223 51.288782,26.31366 52.954064,18.108736 54.923313,8.4061491 48.493821,0.84188926 44.429027,10.385835 c -1.363934,3.202453 -1.872011,6.417239 -0.566021,12.577699 l 7.917543,37.347681 c 0.566837,2.673813 0.187362,6.353204 -2.308175,8.044259 -1.236187,0.83768 -5.61059,1.414194 -6.680799,-0.585382"
         id="path3132"
         sodipodi:nodetypes="cssssssssscsssssssssc"
         inkscape:connector-curvature="0" />
      <ellipse
         style="fill:#000000;fill-opacity:1;stroke:#000000;stroke-width:0.01586259;stroke-miterlimit:4;stroke-dasharray:none;stroke-opacity:1"
         id="ellipse3134"
         transform="matrix(-1.08512,-0.02036848,0.02036848,-1.08512,90.68868,135.0572)"
         cx="44.809425"
         cy="64.584198"
         rx="3.439605"
         ry="3.4987047" />
    </g>
    <rect
       style="opacity:1;fill:#000000;fill-opacity:1;stroke:none;stroke-width:0.10611404;stroke-linecap:round;stroke-miterlimit:4;stroke-dasharray:none;stroke-opacity:1"
       id="rect8632"
       width="1.7466182"
       height="24.682657"
       x="0"
       y="252.08395" />
    <g
       id="g1169">
      <path
         d="m 26.591066,246.89926 h 0.334522 l 0.03716,0.0445 v 7.12689 h 0.0223 q 1.26375,-1.75763 2.341653,-1.75763 1.687477,0.0223 1.836153,1.92819 -0.215581,3.15185 -4.5941,3.80447 l -0.0223,-0.0223 v -11.07967 z m 0.371691,7.96491 v 2.63272 q 3.107336,-0.7342 3.107336,-2.99611 0.0074,-0.0964 0.0074,-0.18541 0,-1.09758 -1.107639,-1.15691 -0.884625,0 -2.007131,1.70571 z"
         style="font-style:normal;font-variant:normal;font-weight:normal;font-stretch:normal;font-size:medium;line-height:1.25;font-family:'Didact Gothic';-inkscape-font-specification:'Didact Gothic';letter-spacing:0px;word-spacing:0px;fill:#000000;fill-opacity:1;stroke:none;stroke-width:0.05927583"
         id="path1127"
         inkscape:connector-curvature="0" />
      <path
         style="opacity:1;fill:#000000;fill-opacity:1;stroke:none;stroke-width:0.91369885;stroke-linecap:round;stroke-miterlimit:4;stroke-dasharray:none;stroke-opacity:1"
         d="m 36.056075,252.18819 c -2.598402,2e-5 -4.704566,1.30195 -4.704437,2.90784 5.6e-5,1.60582 2.106163,2.90759 4.704437,2.90761 2.598265,-2e-5 4.704613,-1.30179 4.704669,-2.90761 1.17e-4,-1.60589 -2.106275,-2.90782 -4.704669,-2.90784 z m 0,0.37443 c 1.887714,-2e-5 2.716819,1.5616 2.716799,2.96076 -1.05e-4,1.39908 -1.317582,2.10585 -2.716799,2.10583 -1.887537,-1.1e-4 -2.716466,-1.68365 -2.716571,-3.08264 -2e-5,-1.39908 1.317353,-1.98384 2.716571,-1.98395 z"
         id="path847"
         inkscape:connector-curvature="0"
         sodipodi:nodetypes="cccccccccc" />
      <path
         inkscape:connector-curvature="0"
         id="path1117"
         style="font-style:normal;font-variant:normal;font-weight:normal;font-stretch:normal;font-size:medium;line-height:1.25;font-family:'Didact Gothic';-inkscape-font-specification:'Didact Gothic';letter-spacing:0px;word-spacing:0px;fill:#000000;fill-opacity:1;stroke:none;stroke-width:0.07766263"
         d="m 29.571332,247.48934 0.405472,0.0974 0.04407,0.0643 v 3.26383 l 1.048942,-0.39228 0.02646,0.0278 v 1.51381 q -0.02646,0.0688 -1.075387,0.46109 v 4.00463 l 1.075387,-0.33225 v 1.44939 q -0.0088,0.0408 -1.075387,0.50403 v 3.18867 l -0.04407,0.0324 -0.405472,-0.0974 -0.04407,-0.0535 v -2.931 l -2.538612,0.89345 v 3.71475 l -0.04407,0.0324 -0.370215,-0.0889 -0.04407,-0.0535 v -3.44634 l -1.137088,0.37111 v -1.52455 q 0,-0.0644 1.137088,-0.43553 v -4.06905 l -0.01763,-0.004 -1.119459,0.3324 v -1.49234 l 1.137088,-0.42479 v -3.08131 l 0.04407,-0.0324 0.370214,0.0889 0.04407,0.0535 v 2.8129 l 2.538612,-0.82903 v -3.57517 z m -2.582685,6.06849 v 4.04757 l 2.538612,-0.88271 v -3.9939 z" />
      <path
         sodipodi:nodetypes="cccccccccc"
         inkscape:connector-curvature="0"
         id="path913"
         d="m 43.701215,252.18819 c -2.598402,2e-5 -4.704565,1.30195 -4.704437,2.90784 5.6e-5,1.60582 2.106164,2.90759 4.704437,2.90761 2.598266,-2e-5 4.704614,-1.30179 4.70467,-2.90761 1.16e-4,-1.60589 -2.106276,-2.90782 -4.70467,-2.90784 z m 0,0.37443 c 1.887714,-2e-5 2.716819,1.5616 2.716799,2.96076 -1.04e-4,1.39908 -1.317581,2.10585 -2.716799,2.10583 -1.887537,-1.1e-4 -2.716466,-1.68365 -2.71657,-3.08264 -2e-5,-1.39908 1.317353,-1.98384 2.71657,-1.98395 z"
         style="opacity:1;fill:#000000;fill-opacity:1;stroke:none;stroke-width:0.91369885;stroke-linecap:round;stroke-miterlimit:4;stroke-dasharray:none;stroke-opacity:1" />
    </g>
    <g
       transform="matrix(0.40106096,0,0,0.40106096,-12.600312,230.76957)"
       id="g1097">
      <g
         aria-label="♭"
         transform="scale(1.0011929,0.99880852)"
         style="font-style:normal;font-weight:normal;font-size:37.91523361px;line-height:1.25;font-family:sans-serif;letter-spacing:0px;word-spacing:0px;display:inline;fill:#000000;fill-opacity:1;stroke:none;stroke-width:0.14779755"
         id="text1083">
        <path
           d="m 97.602825,115.31689 h 0.833099 l 0.09257,0.11108 v 17.79128 h 0.05554 q 3.14726,-4.38765 5.83169,-4.38765 4.20252,0.0555 4.57278,4.81345 -0.53688,7.86816 -11.441215,9.49733 l -0.05554,-0.0555 v -27.65887 z m 0.925665,19.88328 v 6.57222 q 7.73856,-1.83281 7.73856,-7.47937 0.0185,-0.24067 0.0185,-0.46283 0,-2.73997 -2.75848,-2.88808 -2.20308,0 -4.99859,4.25806 z"
           style="font-style:normal;font-variant:normal;font-weight:normal;font-stretch:normal;font-family:'Didact Gothic';-inkscape-font-specification:'Didact Gothic';stroke-width:0.14779755"
           id="path1148" />
      </g>
      <path
         style="opacity:1;fill:#000000;fill-opacity:1;stroke:none;stroke-width:2.27820444;stroke-linecap:round;stroke-miterlimit:4;stroke-dasharray:none;stroke-opacity:1"
         d="m 121.31918,128.36684 c -6.47882,5e-5 -11.7303,3.24627 -11.72998,7.25037 1.4e-4,4.00393 5.25148,7.24975 11.72998,7.2498 6.47848,-5e-5 11.73042,-3.24587 11.73056,-7.2498 2.9e-4,-4.0041 -5.25176,-7.25032 -11.73056,-7.25037 z m 0,0.93361 c 4.7068,-6e-5 6.77408,3.89366 6.77403,7.38232 -2.6e-4,3.48845 -3.28524,5.25069 -6.77403,5.25063 -4.70636,-2.7e-4 -6.7732,-4.19799 -6.77346,-7.6862 -5e-5,-3.48844 3.28467,-4.94648 6.77346,-4.94675 z"
         id="path1085"
         inkscape:connector-curvature="0"
         sodipodi:nodetypes="cccccccccc" />
      <g
         aria-label="♯"
         transform="matrix(0.90609848,0.21759284,0,1.1036328,0,0)"
         style="font-style:normal;font-weight:normal;font-size:49.67618179px;line-height:1.25;font-family:sans-serif;letter-spacing:0px;word-spacing:0px;display:inline;fill:#000000;fill-opacity:1;stroke:none;stroke-width:0.19364296"
         id="text1089">
        <path
           d="m 116.04722,82.817187 h 1.11577 l 0.12128,0.12128 v 7.373808 l 2.88646,-1.455357 0.0728,0.04851 v 3.420089 q -0.0728,0.169792 -2.95923,1.625149 v 9.047472 l 2.95923,-1.33408 v 3.27455 q -0.0243,0.097 -2.95923,1.72217 v 7.20402 l -0.12128,0.097 h -1.11577 l -0.12128,-0.097 v -6.62187 l -6.98571,3.39583 v 8.39256 l -0.12128,0.097 h -1.01875 l -0.12128,-0.097 v -7.78616 l -3.12902,1.45536 v -3.44435 q 0,-0.14553 3.12902,-1.60089 v -9.193006 h -0.0485 l -3.08051,1.358333 V 96.44903 l 3.12902,-1.576636 v -6.961458 l 0.12128,-0.09702 h 1.01875 l 0.12128,0.09702 v 6.355059 l 6.98571,-3.250297 v -8.077231 z m -7.10699,15.111456 v 9.144497 l 6.98571,-3.37158 v -9.023214 z"
           style="font-style:normal;font-variant:normal;font-weight:normal;font-stretch:normal;font-family:'Didact Gothic';-inkscape-font-specification:'Didact Gothic';stroke-width:0.19364296"
           id="path1145" />
      </g>
      <path
         sodipodi:nodetypes="cccccccccc"
         inkscape:connector-curvature="0"
         id="path1091"
         d="m 140.38147,128.36684 c -6.47882,5e-5 -11.7303,3.24627 -11.72998,7.25037 1.4e-4,4.00393 5.25148,7.24975 11.72998,7.2498 6.47848,-5e-5 11.73042,-3.24587 11.73056,-7.2498 2.9e-4,-4.0041 -5.25176,-7.25032 -11.73056,-7.25037 z m 0,0.93361 c 4.7068,-6e-5 6.77408,3.89366 6.77403,7.38232 -2.6e-4,3.48845 -3.28524,5.25069 -6.77403,5.25063 -4.70636,-2.7e-4 -6.7732,-4.19799 -6.77346,-7.6862 -5e-5,-3.48844 3.28467,-4.94648 6.77346,-4.94675 z"
         style="opacity:1;fill:#000000;fill-opacity:1;stroke:none;stroke-width:2.27820444;stroke-linecap:round;stroke-miterlimit:4;stroke-dasharray:none;stroke-opacity:1" />
      <path
         style="fill:none;stroke:#000000;stroke-width:1;stroke-linecap:butt;stroke-linejoin:miter;stroke-miterlimit:4;stroke-dasharray:none;stroke-opacity:1"
         d="m 126.85566,128.11692 h 27.0522"
         id="path1093"
         inkscape:connector-curvature="0" />
      <path
         inkscape:connector-curvature="0"
         id="path1095"
         d="m 107.79337,128.11692 h 27.0522"
         style="fill:none;stroke:#000000;stroke-width:1;stroke-linecap:butt;stroke-linejoin:miter;stroke-miterlimit:4;stroke-dasharray:none;stroke-opacity:1" />
    </g>
    <g
       id="g1047"
       transform="matrix(0.40106096,0,0,0.40106096,-12.600312,227.76161)">
      <g
         aria-label="♭"
         transform="scale(1.0011929,0.99880852)"
         style="font-style:normal;font-weight:normal;font-size:37.91523361px;line-height:1.25;font-family:sans-serif;letter-spacing:0px;word-spacing:0px;display:inline;fill:#000000;fill-opacity:1;stroke:none;stroke-width:0.14779755"
         id="text1037">
        <path
           d="m 97.602825,115.31689 h 0.833099 l 0.09257,0.11108 v 17.79128 h 0.05554 q 3.14726,-4.38765 5.83169,-4.38765 4.20252,0.0555 4.57278,4.81345 -0.53688,7.86816 -11.441215,9.49733 l -0.05554,-0.0555 v -27.65887 z m 0.925665,19.88328 v 6.57222 q 7.73856,-1.83281 7.73856,-7.47937 0.0185,-0.24067 0.0185,-0.46283 0,-2.73997 -2.75848,-2.88808 -2.20308,0 -4.99859,4.25806 z"
           style="font-style:normal;font-variant:normal;font-weight:normal;font-stretch:normal;font-family:'Didact Gothic';-inkscape-font-specification:'Didact Gothic';stroke-width:0.14779755"
           id="path1162" />
      </g>
      <g
         aria-label="♯"
         transform="matrix(0.90609848,0.21759284,0,1.1036328,0,0)"
         style="font-style:normal;font-weight:normal;font-size:49.67618179px;line-height:1.25;font-family:sans-serif;letter-spacing:0px;word-spacing:0px;display:inline;fill:#000000;fill-opacity:1;stroke:none;stroke-width:0.19364296"
         id="text1043">
        <path
           d="m 116.04722,82.817187 h 1.11577 l 0.12128,0.12128 v 7.373808 l 2.88646,-1.455357 0.0728,0.04851 v 3.420089 q -0.0728,0.169792 -2.95923,1.625149 v 9.047472 l 2.95923,-1.33408 v 3.27455 q -0.0243,0.097 -2.95923,1.72217 v 7.20402 l -0.12128,0.097 h -1.11577 l -0.12128,-0.097 v -6.62187 l -6.98571,3.39583 v 8.39256 l -0.12128,0.097 h -1.01875 l -0.12128,-0.097 v -7.78616 l -3.12902,1.45536 v -3.44435 q 0,-0.14553 3.12902,-1.60089 v -9.193006 h -0.0485 l -3.08051,1.358333 V 96.44903 l 3.12902,-1.576636 v -6.961458 l 0.12128,-0.09702 h 1.01875 l 0.12128,0.09702 v 6.355059 l 6.98571,-3.250297 v -8.077231 z m -7.10699,15.111456 v 9.144497 l 6.98571,-3.37158 v -9.023214 z"
           style="font-style:normal;font-variant:normal;font-weight:normal;font-stretch:normal;font-family:'Didact Gothic';-inkscape-font-specification:'Didact Gothic';stroke-width:0.19364296"
           id="path1159" />
      </g>
      <g
         id="g1157">
        <path
           sodipodi:nodetypes="cccccccccc"
           inkscape:connector-curvature="0"
           id="path1045"
           d="m 140.38147,128.36684 c -6.47882,5e-5 -11.7303,3.24627 -11.72998,7.25037 1.4e-4,4.00393 5.25148,7.24975 11.72998,7.2498 6.47848,-5e-5 11.73042,-3.24587 11.73056,-7.2498 2.9e-4,-4.0041 -5.25176,-7.25032 -11.73056,-7.25037 z m 0,0.93361 c 4.7068,-6e-5 6.77408,3.89366 6.77403,7.38232 -2.6e-4,3.48845 -3.28524,5.25069 -6.77403,5.25063 -4.70636,-2.7e-4 -6.7732,-4.19799 -6.77346,-7.6862 -5e-5,-3.48844 3.28467,-4.94648 6.77346,-4.94675 z"
           style="opacity:1;fill:#000000;fill-opacity:1;stroke:none;stroke-width:2.27820444;stroke-linecap:round;stroke-miterlimit:4;stroke-dasharray:none;stroke-opacity:1" />
        <path
           style="fill:none;stroke:#000000;stroke-width:1;stroke-linecap:butt;stroke-linejoin:miter;stroke-miterlimit:4;stroke-dasharray:none;stroke-opacity:1"
           d="m 126.85566,135.61692 h 27.0522"
           id="path1049"
           inkscape:connector-curvature="0" />
      </g>
      <g
         id="g1153">
        <path
           style="opacity:1;fill:#000000;fill-opacity:1;stroke:none;stroke-width:2.27820444;stroke-linecap:round;stroke-miterlimit:4;stroke-dasharray:none;stroke-opacity:1"
           d="m 121.31918,128.36684 c -6.47882,5e-5 -11.7303,3.24627 -11.72998,7.25037 1.4e-4,4.00393 5.25148,7.24975 11.72998,7.2498 6.47848,-5e-5 11.73042,-3.24587 11.73056,-7.2498 2.9e-4,-4.0041 -5.25176,-7.25032 -11.73056,-7.25037 z m 0,0.93361 c 4.7068,-6e-5 6.77408,3.89366 6.77403,7.38232 -2.6e-4,3.48845 -3.28524,5.25069 -6.77403,5.25063 -4.70636,-2.7e-4 -6.7732,-4.19799 -6.77346,-7.6862 -5e-5,-3.48844 3.28467,-4.94648 6.77346,-4.94675 z"
           id="path1039"
           inkscape:connector-curvature="0"
           sodipodi:nodetypes="cccccccccc" />
        <path
           inkscape:connector-curvature="0"
           id="path3114"
           d="m 107.79337,135.61692 h 27.0522"
           style="fill:none;stroke:#000000;stroke-width:1;stroke-linecap:butt;stroke-linejoin:miter;stroke-miterlimit:4;stroke-dasharray:none;stroke-opacity:1" />
      </g>
    </g>
    <g
       id="g1179"
       transform="translate(0,3.0062561)">
      <path
         inkscape:connector-curvature="0"
         id="path1171"
         style="font-style:normal;font-variant:normal;font-weight:normal;font-stretch:normal;font-size:medium;line-height:1.25;font-family:'Didact Gothic';-inkscape-font-specification:'Didact Gothic';letter-spacing:0px;word-spacing:0px;fill:#000000;fill-opacity:1;stroke:none;stroke-width:0.05927583"
         d="m 26.591066,246.89926 h 0.334522 l 0.03716,0.0445 v 7.12689 h 0.0223 q 1.26375,-1.75763 2.341653,-1.75763 1.687477,0.0223 1.836153,1.92819 -0.215581,3.15185 -4.5941,3.80447 l -0.0223,-0.0223 v -11.07967 z m 0.371691,7.96491 v 2.63272 q 3.107336,-0.7342 3.107336,-2.99611 0.0074,-0.0964 0.0074,-0.18541 0,-1.09758 -1.107639,-1.15691 -0.884625,0 -2.007131,1.70571 z" />
      <path
         sodipodi:nodetypes="cccccccccc"
         inkscape:connector-curvature="0"
         id="path1173"
         d="m 36.056075,252.18819 c -2.598402,2e-5 -4.704566,1.30195 -4.704437,2.90784 5.6e-5,1.60582 2.106163,2.90759 4.704437,2.90761 2.598265,-2e-5 4.704613,-1.30179 4.704669,-2.90761 1.17e-4,-1.60589 -2.106275,-2.90782 -4.704669,-2.90784 z m 0,0.37443 c 1.887714,-2e-5 2.716819,1.5616 2.716799,2.96076 -1.05e-4,1.39908 -1.317582,2.10585 -2.716799,2.10583 -1.887537,-1.1e-4 -2.716466,-1.68365 -2.716571,-3.08264 -2e-5,-1.39908 1.317353,-1.98384 2.716571,-1.98395 z"
         style="opacity:1;fill:#000000;fill-opacity:1;stroke:none;stroke-width:0.91369885;stroke-linecap:round;stroke-miterlimit:4;stroke-dasharray:none;stroke-opacity:1" />
      <path
         d="m 29.571332,247.48934 0.405472,0.0974 0.04407,0.0643 v 3.26383 l 1.048942,-0.39228 0.02646,0.0278 v 1.51381 q -0.02646,0.0688 -1.075387,0.46109 v 4.00463 l 1.075387,-0.33225 v 1.44939 q -0.0088,0.0408 -1.075387,0.50403 v 3.18867 l -0.04407,0.0324 -0.405472,-0.0974 -0.04407,-0.0535 v -2.931 l -2.538612,0.89345 v 3.71475 l -0.04407,0.0324 -0.370215,-0.0889 -0.04407,-0.0535 v -3.44634 l -1.137088,0.37111 v -1.52455 q 0,-0.0644 1.137088,-0.43553 v -4.06905 l -0.01763,-0.004 -1.119459,0.3324 v -1.49234 l 1.137088,-0.42479 v -3.08131 l 0.04407,-0.0324 0.370214,0.0889 0.04407,0.0535 v 2.8129 l 2.538612,-0.82903 v -3.57517 z m -2.582685,6.06849 v 4.04757 l 2.538612,-0.88271 v -3.9939 z"
         style="font-style:normal;font-variant:normal;font-weight:normal;font-stretch:normal;font-size:medium;line-height:1.25;font-family:'Didact Gothic';-inkscape-font-specification:'Didact Gothic';letter-spacing:0px;word-spacing:0px;fill:#000000;fill-opacity:1;stroke:none;stroke-width:0.07766263"
         id="path1175"
         inkscape:connector-curvature="0" />
      <path
         style="opacity:1;fill:#000000;fill-opacity:1;stroke:none;stroke-width:0.91369885;stroke-linecap:round;stroke-miterlimit:4;stroke-dasharray:none;stroke-opacity:1"
         d="m 43.701215,252.18819 c -2.598402,2e-5 -4.704565,1.30195 -4.704437,2.90784 5.6e-5,1.60582 2.106164,2.90759 4.704437,2.90761 2.598266,-2e-5 4.704614,-1.30179 4.70467,-2.90761 1.16e-4,-1.60589 -2.106276,-2.90782 -4.70467,-2.90784 z m 0,0.37443 c 1.887714,-2e-5 2.716819,1.5616 2.716799,2.96076 -1.04e-4,1.39908 -1.317581,2.10585 -2.716799,2.10583 -1.887537,-1.1e-4 -2.716466,-1.68365 -2.71657,-3.08264 -2e-5,-1.39908 1.317353,-1.98384 2.71657,-1.98395 z"
         id="path1177"
         inkscape:connector-curvature="0"
         sodipodi:nodetypes="cccccccccc" />
    </g>
    <g
       transform="translate(0,15.031271)"
       id="g1189">
      <path
         d="m 26.591066,246.89926 h 0.334522 l 0.03716,0.0445 v 7.12689 h 0.0223 q 1.26375,-1.75763 2.341653,-1.75763 1.687477,0.0223 1.836153,1.92819 -0.215581,3.15185 -4.5941,3.80447 l -0.0223,-0.0223 v -11.07967 z m 0.371691,7.96491 v 2.63272 q 3.107336,-0.7342 3.107336,-2.99611 0.0074,-0.0964 0.0074,-0.18541 0,-1.09758 -1.107639,-1.15691 -0.884625,0 -2.007131,1.70571 z"
         style="font-style:normal;font-variant:normal;font-weight:normal;font-stretch:normal;font-size:medium;line-height:1.25;font-family:'Didact Gothic';-inkscape-font-specification:'Didact Gothic';letter-spacing:0px;word-spacing:0px;fill:#000000;fill-opacity:1;stroke:none;stroke-width:0.05927583"
         id="path1181"
         inkscape:connector-curvature="0" />
      <path
         style="opacity:1;fill:#000000;fill-opacity:1;stroke:none;stroke-width:0.91369885;stroke-linecap:round;stroke-miterlimit:4;stroke-dasharray:none;stroke-opacity:1"
         d="m 36.056075,252.18819 c -2.598402,2e-5 -4.704566,1.30195 -4.704437,2.90784 5.6e-5,1.60582 2.106163,2.90759 4.704437,2.90761 2.598265,-2e-5 4.704613,-1.30179 4.704669,-2.90761 1.17e-4,-1.60589 -2.106275,-2.90782 -4.704669,-2.90784 z m 0,0.37443 c 1.887714,-2e-5 2.716819,1.5616 2.716799,2.96076 -1.05e-4,1.39908 -1.317582,2.10585 -2.716799,2.10583 -1.887537,-1.1e-4 -2.716466,-1.68365 -2.716571,-3.08264 -2e-5,-1.39908 1.317353,-1.98384 2.716571,-1.98395 z"
         id="path1183"
         inkscape:connector-curvature="0"
         sodipodi:nodetypes="cccccccccc" />
      <path
         inkscape:connector-curvature="0"
         id="path1185"
         style="font-style:normal;font-variant:normal;font-weight:normal;font-stretch:normal;font-size:medium;line-height:1.25;font-family:'Didact Gothic';-inkscape-font-specification:'Didact Gothic';letter-spacing:0px;word-spacing:0px;fill:#000000;fill-opacity:1;stroke:none;stroke-width:0.07766263"
         d="m 29.571332,247.48934 0.405472,0.0974 0.04407,0.0643 v 3.26383 l 1.048942,-0.39228 0.02646,0.0278 v 1.51381 q -0.02646,0.0688 -1.075387,0.46109 v 4.00463 l 1.075387,-0.33225 v 1.44939 q -0.0088,0.0408 -1.075387,0.50403 v 3.18867 l -0.04407,0.0324 -0.405472,-0.0974 -0.04407,-0.0535 v -2.931 l -2.538612,0.89345 v 3.71475 l -0.04407,0.0324 -0.370215,-0.0889 -0.04407,-0.0535 v -3.44634 l -1.137088,0.37111 v -1.52455 q 0,-0.0644 1.137088,-0.43553 v -4.06905 l -0.01763,-0.004 -1.119459,0.3324 v -1.49234 l 1.137088,-0.42479 v -3.08131 l 0.04407,-0.0324 0.370214,0.0889 0.04407,0.0535 v 2.8129 l 2.538612,-0.82903 v -3.57517 z m -2.582685,6.06849 v 4.04757 l 2.538612,-0.88271 v -3.9939 z" />
      <path
         sodipodi:nodetypes="cccccccccc"
         inkscape:connector-curvature="0"
         id="path1187"
         d="m 43.701215,252.18819 c -2.598402,2e-5 -4.704565,1.30195 -4.704437,2.90784 5.6e-5,1.60582 2.106164,2.90759 4.704437,2.90761 2.598266,-2e-5 4.704614,-1.30179 4.70467,-2.90761 1.16e-4,-1.60589 -2.106276,-2.90782 -4.70467,-2.90784 z m 0,0.37443 c 1.887714,-2e-5 2.716819,1.5616 2.716799,2.96076 -1.04e-4,1.39908 -1.317581,2.10585 -2.716799,2.10583 -1.887537,-1.1e-4 -2.716466,-1.68365 -2.71657,-3.08264 -2e-5,-1.39908 1.317353,-1.98384 2.71657,-1.98395 z"
         style="opacity:1;fill:#000000;fill-opacity:1;stroke:none;stroke-width:0.91369885;stroke-linecap:round;stroke-miterlimit:4;stroke-dasharray:none;stroke-opacity:1" />
    </g>
    <g
       id="g1199"
       transform="translate(0,12.025017)">
      <path
         inkscape:connector-curvature="0"
         id="path1191"
         style="font-style:normal;font-variant:normal;font-weight:normal;font-stretch:normal;font-size:medium;line-height:1.25;font-family:'Didact Gothic';-inkscape-font-specification:'Didact Gothic';letter-spacing:0px;word-spacing:0px;fill:#000000;fill-opacity:1;stroke:none;stroke-width:0.05927583"
         d="m 26.591066,246.89926 h 0.334522 l 0.03716,0.0445 v 7.12689 h 0.0223 q 1.26375,-1.75763 2.341653,-1.75763 1.687477,0.0223 1.836153,1.92819 -0.215581,3.15185 -4.5941,3.80447 l -0.0223,-0.0223 v -11.07967 z m 0.371691,7.96491 v 2.63272 q 3.107336,-0.7342 3.107336,-2.99611 0.0074,-0.0964 0.0074,-0.18541 0,-1.09758 -1.107639,-1.15691 -0.884625,0 -2.007131,1.70571 z" />
      <path
         sodipodi:nodetypes="cccccccccc"
         inkscape:connector-curvature="0"
         id="path1193"
         d="m 36.056075,252.18819 c -2.598402,2e-5 -4.704566,1.30195 -4.704437,2.90784 5.6e-5,1.60582 2.106163,2.90759 4.704437,2.90761 2.598265,-2e-5 4.704613,-1.30179 4.704669,-2.90761 1.17e-4,-1.60589 -2.106275,-2.90782 -4.704669,-2.90784 z m 0,0.37443 c 1.887714,-2e-5 2.716819,1.5616 2.716799,2.96076 -1.05e-4,1.39908 -1.317582,2.10585 -2.716799,2.10583 -1.887537,-1.1e-4 -2.716466,-1.68365 -2.716571,-3.08264 -2e-5,-1.39908 1.317353,-1.98384 2.716571,-1.98395 z"
         style="opacity:1;fill:#000000;fill-opacity:1;stroke:none;stroke-width:0.91369885;stroke-linecap:round;stroke-miterlimit:4;stroke-dasharray:none;stroke-opacity:1" />
      <path
         d="m 29.571332,247.48934 0.405472,0.0974 0.04407,0.0643 v 3.26383 l 1.048942,-0.39228 0.02646,0.0278 v 1.51381 q -0.02646,0.0688 -1.075387,0.46109 v 4.00463 l 1.075387,-0.33225 v 1.44939 q -0.0088,0.0408 -1.075387,0.50403 v 3.18867 l -0.04407,0.0324 -0.405472,-0.0974 -0.04407,-0.0535 v -2.931 l -2.538612,0.89345 v 3.71475 l -0.04407,0.0324 -0.370215,-0.0889 -0.04407,-0.0535 v -3.44634 l -1.137088,0.37111 v -1.52455 q 0,-0.0644 1.137088,-0.43553 v -4.06905 l -0.01763,-0.004 -1.119459,0.3324 v -1.49234 l 1.137088,-0.42479 v -3.08131 l 0.04407,-0.0324 0.370214,0.0889 0.04407,0.0535 v 2.8129 l 2.538612,-0.82903 v -3.57517 z m -2.582685,6.06849 v 4.04757 l 2.538612,-0.88271 v -3.9939 z"
         style="font-style:normal;font-variant:normal;font-weight:normal;font-stretch:normal;font-size:medium;line-height:1.25;font-family:'Didact Gothic';-inkscape-font-specification:'Didact Gothic';letter-spacing:0px;word-spacing:0px;fill:#000000;fill-opacity:1;stroke:none;stroke-width:0.07766263"
         id="path1195"
         inkscape:connector-curvature="0" />
      <path
         style="opacity:1;fill:#000000;fill-opacity:1;stroke:none;stroke-width:0.91369885;stroke-linecap:round;stroke-miterlimit:4;stroke-dasharray:none;stroke-opacity:1"
         d="m 43.701215,252.18819 c -2.598402,2e-5 -4.704565,1.30195 -4.704437,2.90784 5.6e-5,1.60582 2.106164,2.90759 4.704437,2.90761 2.598266,-2e-5 4.704614,-1.30179 4.70467,-2.90761 1.16e-4,-1.60589 -2.106276,-2.90782 -4.70467,-2.90784 z m 0,0.37443 c 1.887714,-2e-5 2.716819,1.5616 2.716799,2.96076 -1.04e-4,1.39908 -1.317581,2.10585 -2.716799,2.10583 -1.887537,-1.1e-4 -2.716466,-1.68365 -2.71657,-3.08264 -2e-5,-1.39908 1.317353,-1.98384 2.71657,-1.98395 z"
         id="path1197"
         inkscape:connector-curvature="0"
         sodipodi:nodetypes="cccccccccc" />
    </g>
    <g
       transform="translate(0,18.037524)"
       id="g1209">
      <path
         d="m 26.591066,246.89926 h 0.334522 l 0.03716,0.0445 v 7.12689 h 0.0223 q 1.26375,-1.75763 2.341653,-1.75763 1.687477,0.0223 1.836153,1.92819 -0.215581,3.15185 -4.5941,3.80447 l -0.0223,-0.0223 v -11.07967 z m 0.371691,7.96491 v 2.63272 q 3.107336,-0.7342 3.107336,-2.99611 0.0074,-0.0964 0.0074,-0.18541 0,-1.09758 -1.107639,-1.15691 -0.884625,0 -2.007131,1.70571 z"
         style="font-style:normal;font-variant:normal;font-weight:normal;font-stretch:normal;font-size:medium;line-height:1.25;font-family:'Didact Gothic';-inkscape-font-specification:'Didact Gothic';letter-spacing:0px;word-spacing:0px;fill:#000000;fill-opacity:1;stroke:none;stroke-width:0.05927583"
         id="path1201"
         inkscape:connector-curvature="0" />
      <path
         style="opacity:1;fill:#000000;fill-opacity:1;stroke:none;stroke-width:0.91369885;stroke-linecap:round;stroke-miterlimit:4;stroke-dasharray:none;stroke-opacity:1"
         d="m 36.056075,252.18819 c -2.598402,2e-5 -4.704566,1.30195 -4.704437,2.90784 5.6e-5,1.60582 2.106163,2.90759 4.704437,2.90761 2.598265,-2e-5 4.704613,-1.30179 4.704669,-2.90761 1.17e-4,-1.60589 -2.106275,-2.90782 -4.704669,-2.90784 z m 0,0.37443 c 1.887714,-2e-5 2.716819,1.5616 2.716799,2.96076 -1.05e-4,1.39908 -1.317582,2.10585 -2.716799,2.10583 -1.887537,-1.1e-4 -2.716466,-1.68365 -2.716571,-3.08264 -2e-5,-1.39908 1.317353,-1.98384 2.716571,-1.98395 z"
         id="path1203"
         inkscape:connector-curvature="0"
         sodipodi:nodetypes="cccccccccc" />
      <path
         inkscape:connector-curvature="0"
         id="path1205"
         style="font-style:normal;font-variant:normal;font-weight:normal;font-stretch:normal;font-size:medium;line-height:1.25;font-family:'Didact Gothic';-inkscape-font-specification:'Didact Gothic';letter-spacing:0px;word-spacing:0px;fill:#000000;fill-opacity:1;stroke:none;stroke-width:0.07766263"
         d="m 29.571332,247.48934 0.405472,0.0974 0.04407,0.0643 v 3.26383 l 1.048942,-0.39228 0.02646,0.0278 v 1.51381 q -0.02646,0.0688 -1.075387,0.46109 v 4.00463 l 1.075387,-0.33225 v 1.44939 q -0.0088,0.0408 -1.075387,0.50403 v 3.18867 l -0.04407,0.0324 -0.405472,-0.0974 -0.04407,-0.0535 v -2.931 l -2.538612,0.89345 v 3.71475 l -0.04407,0.0324 -0.370215,-0.0889 -0.04407,-0.0535 v -3.44634 l -1.137088,0.37111 v -1.52455 q 0,-0.0644 1.137088,-0.43553 v -4.06905 l -0.01763,-0.004 -1.119459,0.3324 v -1.49234 l 1.137088,-0.42479 v -3.08131 l 0.04407,-0.0324 0.370214,0.0889 0.04407,0.0535 v 2.8129 l 2.538612,-0.82903 v -3.57517 z m -2.582685,6.06849 v 4.04757 l 2.538612,-0.88271 v -3.9939 z" />
      <path
         sodipodi:nodetypes="cccccccccc"
         inkscape:connector-curvature="0"
         id="path1207"
         d="m 43.701215,252.18819 c -2.598402,2e-5 -4.704565,1.30195 -4.704437,2.90784 5.6e-5,1.60582 2.106164,2.90759 4.704437,2.90761 2.598266,-2e-5 4.704614,-1.30179 4.70467,-2.90761 1.16e-4,-1.60589 -2.106276,-2.90782 -4.70467,-2.90784 z m 0,0.37443 c 1.887714,-2e-5 2.716819,1.5616 2.716799,2.96076 -1.04e-4,1.39908 -1.317581,2.10585 -2.716799,2.10583 -1.887537,-1.1e-4 -2.716466,-1.68365 -2.71657,-3.08264 -2e-5,-1.39908 1.317353,-1.98384 2.71657,-1.98395 z"
         style="opacity:1;fill:#000000;fill-opacity:1;stroke:none;stroke-width:0.91369885;stroke-linecap:round;stroke-miterlimit:4;stroke-dasharray:none;stroke-opacity:1" />
    </g>
    <g
       transform="translate(0,9.0187606)"
       id="g1229">
      <path
         d="m 26.591066,246.89926 h 0.334522 l 0.03716,0.0445 v 7.12689 h 0.0223 q 1.26375,-1.75763 2.341653,-1.75763 1.687477,0.0223 1.836153,1.92819 -0.215581,3.15185 -4.5941,3.80447 l -0.0223,-0.0223 v -11.07967 z m 0.371691,7.96491 v 2.63272 q 3.107336,-0.7342 3.107336,-2.99611 0.0074,-0.0964 0.0074,-0.18541 0,-1.09758 -1.107639,-1.15691 -0.884625,0 -2.007131,1.70571 z"
         style="font-style:normal;font-variant:normal;font-weight:normal;font-stretch:normal;font-size:medium;line-height:1.25;font-family:'Didact Gothic';-inkscape-font-specification:'Didact Gothic';letter-spacing:0px;word-spacing:0px;fill:#000000;fill-opacity:1;stroke:none;stroke-width:0.05927583"
         id="path1221"
         inkscape:connector-curvature="0" />
      <path
         style="opacity:1;fill:#000000;fill-opacity:1;stroke:none;stroke-width:0.91369885;stroke-linecap:round;stroke-miterlimit:4;stroke-dasharray:none;stroke-opacity:1"
         d="m 36.056075,252.18819 c -2.598402,2e-5 -4.704566,1.30195 -4.704437,2.90784 5.6e-5,1.60582 2.106163,2.90759 4.704437,2.90761 2.598265,-2e-5 4.704613,-1.30179 4.704669,-2.90761 1.17e-4,-1.60589 -2.106275,-2.90782 -4.704669,-2.90784 z m 0,0.37443 c 1.887714,-2e-5 2.716819,1.5616 2.716799,2.96076 -1.05e-4,1.39908 -1.317582,2.10585 -2.716799,2.10583 -1.887537,-1.1e-4 -2.716466,-1.68365 -2.716571,-3.08264 -2e-5,-1.39908 1.317353,-1.98384 2.716571,-1.98395 z"
         id="path1223"
         inkscape:connector-curvature="0"
         sodipodi:nodetypes="cccccccccc" />
      <path
         inkscape:connector-curvature="0"
         id="path1225"
         style="font-style:normal;font-variant:normal;font-weight:normal;font-stretch:normal;font-size:medium;line-height:1.25;font-family:'Didact Gothic';-inkscape-font-specification:'Didact Gothic';letter-spacing:0px;word-spacing:0px;fill:#000000;fill-opacity:1;stroke:none;stroke-width:0.07766263"
         d="m 29.571332,247.48934 0.405472,0.0974 0.04407,0.0643 v 3.26383 l 1.048942,-0.39228 0.02646,0.0278 v 1.51381 q -0.02646,0.0688 -1.075387,0.46109 v 4.00463 l 1.075387,-0.33225 v 1.44939 q -0.0088,0.0408 -1.075387,0.50403 v 3.18867 l -0.04407,0.0324 -0.405472,-0.0974 -0.04407,-0.0535 v -2.931 l -2.538612,0.89345 v 3.71475 l -0.04407,0.0324 -0.370215,-0.0889 -0.04407,-0.0535 v -3.44634 l -1.137088,0.37111 v -1.52455 q 0,-0.0644 1.137088,-0.43553 v -4.06905 l -0.01763,-0.004 -1.119459,0.3324 v -1.49234 l 1.137088,-0.42479 v -3.08131 l 0.04407,-0.0324 0.370214,0.0889 0.04407,0.0535 v 2.8129 l 2.538612,-0.82903 v -3.57517 z m -2.582685,6.06849 v 4.04757 l 2.538612,-0.88271 v -3.9939 z" />
      <path
         sodipodi:nodetypes="cccccccccc"
         inkscape:connector-curvature="0"
         id="path1227"
         d="m 43.701215,252.18819 c -2.598402,2e-5 -4.704565,1.30195 -4.704437,2.90784 5.6e-5,1.60582 2.106164,2.90759 4.704437,2.90761 2.598266,-2e-5 4.704614,-1.30179 4.70467,-2.90761 1.16e-4,-1.60589 -2.106276,-2.90782 -4.70467,-2.90784 z m 0,0.37443 c 1.887714,-2e-5 2.716819,1.5616 2.716799,2.96076 -1.04e-4,1.39908 -1.317581,2.10585 -2.716799,2.10583 -1.887537,-1.1e-4 -2.716466,-1.68365 -2.71657,-3.08264 -2e-5,-1.39908 1.317353,-1.98384 2.71657,-1.98395 z"
         style="opacity:1;fill:#000000;fill-opacity:1;stroke:none;stroke-width:0.91369885;stroke-linecap:round;stroke-miterlimit:4;stroke-dasharray:none;stroke-opacity:1" />
    </g>
    <g
       transform="translate(0,21.043777)"
       id="g1239">
      <path
         d="m 26.591066,246.89926 h 0.334522 l 0.03716,0.0445 v 7.12689 h 0.0223 q 1.26375,-1.75763 2.341653,-1.75763 1.687477,0.0223 1.836153,1.92819 -0.215581,3.15185 -4.5941,3.80447 l -0.0223,-0.0223 v -11.07967 z m 0.371691,7.96491 v 2.63272 q 3.107336,-0.7342 3.107336,-2.99611 0.0074,-0.0964 0.0074,-0.18541 0,-1.09758 -1.107639,-1.15691 -0.884625,0 -2.007131,1.70571 z"
         style="font-style:normal;font-variant:normal;font-weight:normal;font-stretch:normal;font-size:medium;line-height:1.25;font-family:'Didact Gothic';-inkscape-font-specification:'Didact Gothic';letter-spacing:0px;word-spacing:0px;fill:#000000;fill-opacity:1;stroke:none;stroke-width:0.05927583"
         id="path1231"
         inkscape:connector-curvature="0" />
      <path
         style="opacity:1;fill:#000000;fill-opacity:1;stroke:none;stroke-width:0.91369885;stroke-linecap:round;stroke-miterlimit:4;stroke-dasharray:none;stroke-opacity:1"
         d="m 36.056075,252.18819 c -2.598402,2e-5 -4.704566,1.30195 -4.704437,2.90784 5.6e-5,1.60582 2.106163,2.90759 4.704437,2.90761 2.598265,-2e-5 4.704613,-1.30179 4.704669,-2.90761 1.17e-4,-1.60589 -2.106275,-2.90782 -4.704669,-2.90784 z m 0,0.37443 c 1.887714,-2e-5 2.716819,1.5616 2.716799,2.96076 -1.05e-4,1.39908 -1.317582,2.10585 -2.716799,2.10583 -1.887537,-1.1e-4 -2.716466,-1.68365 -2.716571,-3.08264 -2e-5,-1.39908 1.317353,-1.98384 2.716571,-1.98395 z"
         id="path1233"
         inkscape:connector-curvature="0"
         sodipodi:nodetypes="cccccccccc" />
      <path
         inkscape:connector-curvature="0"
         id="path1235"
         style="font-style:normal;font-variant:normal;font-weight:normal;font-stretch:normal;font-size:medium;line-height:1.25;font-family:'Didact Gothic';-inkscape-font-specification:'Didact Gothic';letter-spacing:0px;word-spacing:0px;fill:#000000;fill-opacity:1;stroke:none;stroke-width:0.07766263"
         d="m 29.571332,247.48934 0.405472,0.0974 0.04407,0.0643 v 3.26383 l 1.048942,-0.39228 0.02646,0.0278 v 1.51381 q -0.02646,0.0688 -1.075387,0.46109 v 4.00463 l 1.075387,-0.33225 v 1.44939 q -0.0088,0.0408 -1.075387,0.50403 v 3.18867 l -0.04407,0.0324 -0.405472,-0.0974 -0.04407,-0.0535 v -2.931 l -2.538612,0.89345 v 3.71475 l -0.04407,0.0324 -0.370215,-0.0889 -0.04407,-0.0535 v -3.44634 l -1.137088,0.37111 v -1.52455 q 0,-0.0644 1.137088,-0.43553 v -4.06905 l -0.01763,-0.004 -1.119459,0.3324 v -1.49234 l 1.137088,-0.42479 v -3.08131 l 0.04407,-0.0324 0.370214,0.0889 0.04407,0.0535 v 2.8129 l 2.538612,-0.82903 v -3.57517 z m -2.582685,6.06849 v 4.04757 l 2.538612,-0.88271 v -3.9939 z" />
      <path
         sodipodi:nodetypes="cccccccccc"
         inkscape:connector-curvature="0"
         id="path1237"
         d="m 43.701215,252.18819 c -2.598402,2e-5 -4.704565,1.30195 -4.704437,2.90784 5.6e-5,1.60582 2.106164,2.90759 4.704437,2.90761 2.598266,-2e-5 4.704614,-1.30179 4.70467,-2.90761 1.16e-4,-1.60589 -2.106276,-2.90782 -4.70467,-2.90784 z m 0,0.37443 c 1.887714,-2e-5 2.716819,1.5616 2.716799,2.96076 -1.04e-4,1.39908 -1.317581,2.10585 -2.716799,2.10583 -1.887537,-1.1e-4 -2.716466,-1.68365 -2.71657,-3.08264 -2e-5,-1.39908 1.317353,-1.98384 2.71657,-1.98395 z"
         style="opacity:1;fill:#000000;fill-opacity:1;stroke:none;stroke-width:0.91369885;stroke-linecap:round;stroke-miterlimit:4;stroke-dasharray:none;stroke-opacity:1" />
    </g>
    <g
       id="g1249"
       transform="translate(0,24.050029)">
      <path
         inkscape:connector-curvature="0"
         id="path1241"
         style="font-style:normal;font-variant:normal;font-weight:normal;font-stretch:normal;font-size:medium;line-height:1.25;font-family:'Didact Gothic';-inkscape-font-specification:'Didact Gothic';letter-spacing:0px;word-spacing:0px;fill:#000000;fill-opacity:1;stroke:none;stroke-width:0.05927583"
         d="m 26.591066,246.89926 h 0.334522 l 0.03716,0.0445 v 7.12689 h 0.0223 q 1.26375,-1.75763 2.341653,-1.75763 1.687477,0.0223 1.836153,1.92819 -0.215581,3.15185 -4.5941,3.80447 l -0.0223,-0.0223 v -11.07967 z m 0.371691,7.96491 v 2.63272 q 3.107336,-0.7342 3.107336,-2.99611 0.0074,-0.0964 0.0074,-0.18541 0,-1.09758 -1.107639,-1.15691 -0.884625,0 -2.007131,1.70571 z" />
      <path
         sodipodi:nodetypes="cccccccccc"
         inkscape:connector-curvature="0"
         id="path1243"
         d="m 36.056075,252.18819 c -2.598402,2e-5 -4.704566,1.30195 -4.704437,2.90784 5.6e-5,1.60582 2.106163,2.90759 4.704437,2.90761 2.598265,-2e-5 4.704613,-1.30179 4.704669,-2.90761 1.17e-4,-1.60589 -2.106275,-2.90782 -4.704669,-2.90784 z m 0,0.37443 c 1.887714,-2e-5 2.716819,1.5616 2.716799,2.96076 -1.05e-4,1.39908 -1.317582,2.10585 -2.716799,2.10583 -1.887537,-1.1e-4 -2.716466,-1.68365 -2.716571,-3.08264 -2e-5,-1.39908 1.317353,-1.98384 2.716571,-1.98395 z"
         style="opacity:1;fill:#000000;fill-opacity:1;stroke:none;stroke-width:0.91369885;stroke-linecap:round;stroke-miterlimit:4;stroke-dasharray:none;stroke-opacity:1" />
      <path
         d="m 29.571332,247.48934 0.405472,0.0974 0.04407,0.0643 v 3.26383 l 1.048942,-0.39228 0.02646,0.0278 v 1.51381 q -0.02646,0.0688 -1.075387,0.46109 v 4.00463 l 1.075387,-0.33225 v 1.44939 q -0.0088,0.0408 -1.075387,0.50403 v 3.18867 l -0.04407,0.0324 -0.405472,-0.0974 -0.04407,-0.0535 v -2.931 l -2.538612,0.89345 v 3.71475 l -0.04407,0.0324 -0.370215,-0.0889 -0.04407,-0.0535 v -3.44634 l -1.137088,0.37111 v -1.52455 q 0,-0.0644 1.137088,-0.43553 v -4.06905 l -0.01763,-0.004 -1.119459,0.3324 v -1.49234 l 1.137088,-0.42479 v -3.08131 l 0.04407,-0.0324 0.370214,0.0889 0.04407,0.0535 v 2.8129 l 2.538612,-0.82903 v -3.57517 z m -2.582685,6.06849 v 4.04757 l 2.538612,-0.88271 v -3.9939 z"
         style="font-style:normal;font-variant:normal;font-weight:normal;font-stretch:normal;font-size:medium;line-height:1.25;font-family:'Didact Gothic';-inkscape-font-specification:'Didact Gothic';letter-spacing:0px;word-spacing:0px;fill:#000000;fill-opacity:1;stroke:none;stroke-width:0.07766263"
         id="path1245"
         inkscape:connector-curvature="0" />
      <path
         style="opacity:1;fill:#000000;fill-opacity:1;stroke:none;stroke-width:0.91369885;stroke-linecap:round;stroke-miterlimit:4;stroke-dasharray:none;stroke-opacity:1"
         d="m 43.701215,252.18819 c -2.598402,2e-5 -4.704565,1.30195 -4.704437,2.90784 5.6e-5,1.60582 2.106164,2.90759 4.704437,2.90761 2.598266,-2e-5 4.704614,-1.30179 4.70467,-2.90761 1.16e-4,-1.60589 -2.106276,-2.90782 -4.70467,-2.90784 z m 0,0.37443 c 1.887714,-2e-5 2.716819,1.5616 2.716799,2.96076 -1.04e-4,1.39908 -1.317581,2.10585 -2.716799,2.10583 -1.887537,-1.1e-4 -2.716466,-1.68365 -2.71657,-3.08264 -2e-5,-1.39908 1.317353,-1.98384 2.71657,-1.98395 z"
         id="path1247"
         inkscape:connector-curvature="0"
         sodipodi:nodetypes="cccccccccc" />
    </g>
    <g
       transform="translate(0,6.0125084)"
       id="g1259">
      <path
         d="m 26.591066,246.89926 h 0.334522 l 0.03716,0.0445 v 7.12689 h 0.0223 q 1.26375,-1.75763 2.341653,-1.75763 1.687477,0.0223 1.836153,1.92819 -0.215581,3.15185 -4.5941,3.80447 l -0.0223,-0.0223 v -11.07967 z m 0.371691,7.96491 v 2.63272 q 3.107336,-0.7342 3.107336,-2.99611 0.0074,-0.0964 0.0074,-0.18541 0,-1.09758 -1.107639,-1.15691 -0.884625,0 -2.007131,1.70571 z"
         style="font-style:normal;font-variant:normal;font-weight:normal;font-stretch:normal;font-size:medium;line-height:1.25;font-family:'Didact Gothic';-inkscape-font-specification:'Didact Gothic';letter-spacing:0px;word-spacing:0px;fill:#000000;fill-opacity:1;stroke:none;stroke-width:0.05927583"
         id="path1251"
         inkscape:connector-curvature="0" />
      <path
         style="opacity:1;fill:#000000;fill-opacity:1;stroke:none;stroke-width:0.91369885;stroke-linecap:round;stroke-miterlimit:4;stroke-dasharray:none;stroke-opacity:1"
         d="m 36.056075,252.18819 c -2.598402,2e-5 -4.704566,1.30195 -4.704437,2.90784 5.6e-5,1.60582 2.106163,2.90759 4.704437,2.90761 2.598265,-2e-5 4.704613,-1.30179 4.704669,-2.90761 1.17e-4,-1.60589 -2.106275,-2.90782 -4.704669,-2.90784 z m 0,0.37443 c 1.887714,-2e-5 2.716819,1.5616 2.716799,2.96076 -1.05e-4,1.39908 -1.317582,2.10585 -2.716799,2.10583 -1.887537,-1.1e-4 -2.716466,-1.68365 -2.716571,-3.08264 -2e-5,-1.39908 1.317353,-1.98384 2.716571,-1.98395 z"
         id="path1253"
         inkscape:connector-curvature="0"
         sodipodi:nodetypes="cccccccccc" />
      <path
         inkscape:connector-curvature="0"
         id="path1255"
         style="font-style:normal;font-variant:normal;font-weight:normal;font-stretch:normal;font-size:medium;line-height:1.25;font-family:'Didact Gothic';-inkscape-font-specification:'Didact Gothic';letter-spacing:0px;word-spacing:0px;fill:#000000;fill-opacity:1;stroke:none;stroke-width:0.07766263"
         d="m 29.571332,247.48934 0.405472,0.0974 0.04407,0.0643 v 3.26383 l 1.048942,-0.39228 0.02646,0.0278 v 1.51381 q -0.02646,0.0688 -1.075387,0.46109 v 4.00463 l 1.075387,-0.33225 v 1.44939 q -0.0088,0.0408 -1.075387,0.50403 v 3.18867 l -0.04407,0.0324 -0.405472,-0.0974 -0.04407,-0.0535 v -2.931 l -2.538612,0.89345 v 3.71475 l -0.04407,0.0324 -0.370215,-0.0889 -0.04407,-0.0535 v -3.44634 l -1.137088,0.37111 v -1.52455 q 0,-0.0644 1.137088,-0.43553 v -4.06905 l -0.01763,-0.004 -1.119459,0.3324 v -1.49234 l 1.137088,-0.42479 v -3.08131 l 0.04407,-0.0324 0.370214,0.0889 0.04407,0.0535 v 2.8129 l 2.538612,-0.82903 v -3.57517 z m -2.582685,6.06849 v 4.04757 l 2.538612,-0.88271 v -3.9939 z" />
      <path
         sodipodi:nodetypes="cccccccccc"
         inkscape:connector-curvature="0"
         id="path1257"
         d="m 43.701215,252.18819 c -2.598402,2e-5 -4.704565,1.30195 -4.704437,2.90784 5.6e-5,1.60582 2.106164,2.90759 4.704437,2.90761 2.598266,-2e-5 4.704614,-1.30179 4.70467,-2.90761 1.16e-4,-1.60589 -2.106276,-2.90782 -4.70467,-2.90784 z m 0,0.37443 c 1.887714,-2e-5 2.716819,1.5616 2.716799,2.96076 -1.04e-4,1.39908 -1.317581,2.10585 -2.716799,2.10583 -1.887537,-1.1e-4 -2.716466,-1.68365 -2.71657,-3.08264 -2e-5,-1.39908 1.317353,-1.98384 2.71657,-1.98395 z"
         style="opacity:1;fill:#000000;fill-opacity:1;stroke:none;stroke-width:0.91369885;stroke-linecap:round;stroke-miterlimit:4;stroke-dasharray:none;stroke-opacity:1" />
    </g>
  </g>
</svg>
