<?xml version="1.0" encoding="UTF-8" standalone="no"?>
<!-- Created with Inkscape (http://www.inkscape.org/) -->

<svg
   xmlns:dc="http://purl.org/dc/elements/1.1/"
   xmlns:cc="http://creativecommons.org/ns#"
   xmlns:rdf="http://www.w3.org/1999/02/22-rdf-syntax-ns#"
   xmlns:svg="http://www.w3.org/2000/svg"
   xmlns="http://www.w3.org/2000/svg"
   xmlns:sodipodi="http://sodipodi.sourceforge.net/DTD/sodipodi-0.dtd"
   xmlns:inkscape="http://www.inkscape.org/namespaces/inkscape"
   width="35"
   height="25"
   viewBox="0 0 9.2604162 6.6145835"
   version="1.1"
   id="svg6144"
   inkscape:version="0.92.2 (5c3e80d, 2017-08-06)"
   sodipodi:docname="icon-audio-on.svg">
  <defs
     id="defs6138" />
  <sodipodi:namedview
     id="base"
     pagecolor="#ffffff"
     bordercolor="#666666"
     borderopacity="1.0"
     inkscape:pageopacity="0.0"
     inkscape:pageshadow="2"
     inkscape:zoom="2.8"
     inkscape:cx="167.70769"
     inkscape:cy="40.820881"
     inkscape:document-units="mm"
     inkscape:current-layer="layer1"
     showgrid="false"
     units="px"
     inkscape:window-width="1600"
     inkscape:window-height="837"
     inkscape:window-x="-8"
     inkscape:window-y="-8"
     inkscape:window-maximized="1" />
  <metadata
     id="metadata6141">
    <rdf:RDF>
      <cc:Work
         rdf:about="">
        <dc:format>image/svg+xml</dc:format>
        <dc:type
           rdf:resource="http://purl.org/dc/dcmitype/StillImage" />
        <dc:title></dc:title>
      </cc:Work>
    </rdf:RDF>
  </metadata>
  <g
     inkscape:label="Layer 1"
     inkscape:groupmode="layer"
     id="layer1"
     transform="translate(0,-290.38542)">
    <path
       style="fill:#000000;fill-opacity:1;stroke:none;stroke-width:0.02926064px;stroke-linecap:butt;stroke-linejoin:miter;stroke-opacity:1"
       d="m 3.8633457,291.87149 c -0.072009,0.001 -0.1367022,0.0661 -0.1367022,0.0661 l -1.3689635,1.00321 -0.020918,0.71065 0.020918,0.88617 1.3689635,1.0032 c 0,0 0.1150014,0.11499 0.2090536,0.0419 0.094052,-0.0731 0.083553,-0.22991 0.083553,-0.22991 v -1.2833 -0.83604 -1.10767 c 0,0 0.010502,-0.15677 -0.083553,-0.22992 -0.023512,-0.0183 -0.048346,-0.0249 -0.072351,-0.0244 z"
       id="path10406"
       inkscape:connector-curvature="0"
       sodipodi:nodetypes="scccccccccccs" />
    <path
       style="opacity:1;fill:#000000;fill-opacity:1;stroke:none;stroke-width:0.1105914;stroke-linecap:round;stroke-linejoin:miter;stroke-miterlimit:4;stroke-dasharray:none;stroke-opacity:0.77222224"
       d="m 1.5739207,292.99309 h 0.3239572 c 0.069473,0 0.1301969,0.0561 0.1254027,0.12541 -0.028622,0.41377 -0.027105,0.85768 0,1.32718 0.00398,0.0693 -0.055929,0.1254 -0.1254027,0.1254 H 1.5739207 c -0.069473,0 -0.1195926,-0.0562 -0.1254027,-0.1254 -0.034253,-0.40815 -0.048799,-0.83599 0,-1.32718 0.00687,-0.0691 0.055929,-0.12541 0.1254027,-0.12541 z"
       id="rect10411"
       inkscape:connector-curvature="0"
       sodipodi:nodetypes="sssssssss" />
    <path
       style="fill:none;stroke:#000000;stroke-width:0.552957;stroke-linecap:round;stroke-linejoin:miter;stroke-miterlimit:4;stroke-dasharray:none;stroke-opacity:1"
       d="m 4.7507904,295.11449 c 0.6652695,-0.94011 0.5297784,-1.84298 0,-2.72751"
       id="path10414"
       inkscape:connector-curvature="0"
       sodipodi:nodetypes="cc" />
    <path
       style="fill:none;stroke:#000000;stroke-width:0.552957;stroke-linecap:round;stroke-linejoin:miter;stroke-miterlimit:4;stroke-dasharray:none;stroke-opacity:1"
       d="m 5.7644627,295.7415 c 0.5997785,-1.06898 1.0205173,-2.20776 0,-3.90838"
       id="path10418"
       inkscape:connector-curvature="0"
       sodipodi:nodetypes="cc" />
    <path
       sodipodi:nodetypes="cc"
       inkscape:connector-curvature="0"
       id="path10420"
       d="m 6.8094855,296.33906 c 0.8192333,-1.4842 1.2086216,-2.99646 -0.010447,-5.10351"
       style="fill:none;stroke:#000000;stroke-width:0.552957;stroke-linecap:round;stroke-linejoin:miter;stroke-miterlimit:4;stroke-dasharray:none;stroke-opacity:1" />
  </g>
</svg>
